<svg width="73.204224" height="105.000000" viewBox="0 0 73.2042 105" fill="none" xmlns="http://www.w3.org/2000/svg" xmlns:xlink="http://www.w3.org/1999/xlink">
	<desc>
			Created with Pixso.
	</desc>
	<defs/>
	<path d="M46.0792 1.28979C45.389 2.02051 43.7538 3.56787 42.4485 4.75732C38.0975 8.68311 37.2124 10.0874 37.0924 13.2969C37.0023 15.9048 37.6324 17.8821 39.2678 20.1316C39.7029 20.7334 40.063 21.1919 40.063 21.1345C40.063 21.0916 39.793 20.5327 39.4629 19.9023C38.2026 17.4951 37.8275 14.572 38.5177 12.4946C39.1628 10.5459 40.108 9.37085 43.3037 6.54834C43.9788 5.96094 44.804 5.14404 45.149 4.75732L45.7942 4.04077L45.7041 7.0498C45.6592 9.0415 45.5541 10.417 45.389 11.1333C44.834 13.5549 43.7538 15.4749 41.7883 17.5811C40.363 19.1143 39.958 19.9883 40.348 20.7046C40.4081 20.8337 40.5131 21.3782 40.5731 21.8938L40.6631 22.8396L39.8079 23.384C36.9124 25.218 34.8718 27.8689 34.0468 30.8777C33.8217 31.6802 33.7317 32.4539 33.7317 33.7004C33.7167 36.3513 34.2268 38.5579 35.517 41.3374L36.1921 42.7991L35.9521 43.9453C35.712 45.1057 35.6371 48.559 35.847 49.4617C35.9221 49.8198 36.0121 49.8915 36.3872 49.8915L36.8373 49.8915L36.9423 48.0431C37.3324 41.4521 39.6129 37.6265 44.969 34.5745C49.0948 32.2246 50.3102 30.9065 53.0557 25.8057C55.2162 21.7507 55.9062 20.676 57.5717 18.627L58.5168 17.4666L57.1815 18.011C55.0211 18.8994 51.9154 19.7876 48.1647 20.5901C44.564 21.3494 42.9286 21.7937 41.6833 22.3955C41.2932 22.5818 40.9331 22.7393 40.8882 22.7393C40.8431 22.7393 40.8281 22.1663 40.8732 21.4497C40.9481 19.9165 40.9631 19.8879 43.2887 17.5667C44.549 16.3203 45.074 15.6611 45.5092 14.8445C46.4694 13.0247 46.5443 12.4946 46.4393 8.98413C46.3344 5.68848 46.5143 3.53931 47.1145 1.14648C47.2645 0.530273 47.3845 0.0146484 47.3695 0.000244141C47.3545 -0.0141602 46.7694 0.573242 46.0792 1.28979ZM52.9957 23.7566C49.9801 29.0581 47.8796 31.3076 43.0636 34.417C42.1184 35.033 41.0082 35.8066 40.603 36.1221C39.1178 37.2969 37.4224 39.6182 36.7773 41.3518C36.6272 41.7673 36.4622 42.054 36.4172 41.9822C36.1771 41.624 35.532 38.7012 35.382 37.3398C34.8868 32.8264 36.6422 28.8718 40.333 26.2212C42.4485 24.688 44.3689 23.9858 48.2397 23.3125C49.89 23.0259 52.5156 22.2952 53.6409 21.8223C53.8959 21.7219 54.106 21.6504 54.136 21.6646C54.1509 21.679 53.6409 22.6248 52.9957 23.7566Z" fill="#151618" fill-opacity="1.000000" fill-rule="nonzero"/>
	<path d="M19.681 4.86841C20.5758 8.09668 20.8442 12.3293 20.4117 16.2896C19.8749 21.2253 20.3223 22.7175 23.5137 26.7781C24.3785 27.8684 25.3479 29.2888 25.6909 29.9202C26.6603 31.7998 27.1821 34.4685 27.1971 37.6826L27.1971 39.0168L26.8392 38.8735C26.004 38.5723 24.4978 38.4431 20.71 38.3713C18.5029 38.3281 16.2212 38.2278 15.6396 38.1704C15.0729 38.0986 14.5808 38.0701 14.5659 38.0842C14.5361 38.0986 14.8344 38.3281 15.2369 38.6008C16.9221 39.7629 18.6222 41.2695 20.5907 43.3501C21.7539 44.5696 23.1407 45.9185 23.6926 46.3345C26.0488 48.1281 28.748 49.1754 32.0139 49.5485C33.3561 49.7063 32.8192 49.2185 30.5525 48.2715C26.9436 46.7505 25.1392 45.5166 22.3654 42.6899C21.3214 41.6284 20.0538 40.4949 19.5616 40.1648L18.667 39.5908L20.4266 39.5908C25.0497 39.5908 27.6594 40.4517 29.8813 42.7043C30.985 43.8093 31.7754 45.1865 32.178 46.6646C32.2972 47.1379 32.4315 47.5542 32.4762 47.5972C32.6254 47.7263 32.5807 45.9041 32.4166 44.8997C32.0736 42.8191 30.3438 40.5234 28.3602 39.519L27.4954 39.0886L27.4954 36.7212C27.4954 32.0151 27.0629 30.3938 24.7961 26.7207C21.7986 21.8423 21.3065 19.9197 21.396 13.1616C21.4258 11.0667 21.4706 9.34497 21.4855 9.35938C21.4855 9.37378 21.7986 9.77539 22.1565 10.249C22.5294 10.7224 23.8566 12.1428 25.1241 13.4055C28.1963 16.4617 29.3744 18.2266 30.1051 20.8809C30.9253 23.7935 30.2543 27.8684 28.3156 31.7998C27.9576 32.5315 27.6892 33.1343 27.7041 33.1343C27.734 33.1343 27.9874 32.7898 28.2858 32.3594C30.6271 28.9731 31.8052 25.1567 31.6262 21.584C31.5219 19.6326 31.1191 18.1118 30.2692 16.4187C29.4042 14.6682 28.405 13.4341 25.512 10.5503C23.2601 8.29761 21.7091 6.6333 20.0836 4.79663L19.4573 4.0791L19.681 4.86841Z" fill="#151618" fill-opacity="1.000000" fill-rule="nonzero"/>
	<path d="M46.5726 40.0359C43.1472 40.7346 40.8185 43.6443 40.8035 47.2102C40.8035 47.9233 40.7734 47.9805 40.3376 48.123C39.5564 48.3799 40.1273 48.5082 42.5463 48.608C46.0017 48.7506 48.1201 48.3656 49.923 47.2529C50.4188 46.9536 51.6658 45.9978 52.7024 45.1277C54.8058 43.3877 55.8876 42.646 57.6604 41.7473L58.8473 41.1484L57.4049 41.0486C56.6237 41.0056 55.2264 40.8203 54.295 40.6633C53.3635 40.5066 51.8911 40.2498 51.0198 40.1072C49.1869 39.7932 47.8647 39.7649 46.5726 40.0359ZM51.5305 41.8186C52.2667 41.9897 53.4086 42.1753 54.0396 42.218L55.2114 42.3179L53.5739 43.573C51.0798 45.4844 49.4272 46.3545 47.3088 46.8679C46.2271 47.1389 41.3894 47.8379 41.2842 47.738C41.149 47.6096 41.5847 46.2832 42.1105 45.2419C43.027 43.4304 44.7548 42.1326 46.9332 41.6047C48.045 41.3337 49.7878 41.4194 51.5305 41.8186Z" fill="#151618" fill-opacity="1.000000" fill-rule="nonzero"/>
	<path d="M13.0565 55.6404C12.876 63.3893 13.2971 66.0106 15.3276 69.9139C16.3955 71.9592 18.1251 74.3501 19.3584 75.4735C19.6593 75.7472 19.8999 76.0065 19.8999 76.0497C19.8999 76.1073 16.1548 76.1217 11.5975 76.0929C7.02527 76.0641 3.12976 76.0929 2.9342 76.1361C2.75366 76.1793 2.51306 76.381 2.42285 76.5682C2.28748 76.8706 2.30249 76.9714 2.52808 77.2163C2.79883 77.5044 2.96423 77.5044 36.4745 77.5044C59.4114 77.5044 70.2405 77.4612 70.451 77.3604C70.8422 77.1587 70.8422 76.4098 70.451 76.2081C70.2555 76.1217 67.1572 76.0641 61.4117 76.0641L52.6732 76.0641L53.5907 75.0127C56.2076 72.0601 57.9072 68.8193 59.0203 64.6855C59.3361 63.5477 59.3662 63.058 59.4114 57.2968L59.4866 51.1466L36.3241 51.1466L13.1617 51.1466L13.0565 55.6404Z" fill="#151618" fill-opacity="1.000000" fill-rule="nonzero"/>
	<path d="M6.81421 79.4547C11.8964 81.7458 19.7301 83.6127 27.0376 84.2775C28.3308 84.4047 28.9171 84.5037 28.6917 84.5603C28.3759 84.6451 28.3608 84.6593 28.6165 84.6735C28.7819 84.6876 29.8043 84.7583 30.8718 84.8431C36.375 85.225 48.1633 84.9987 47.8325 84.5037C47.7875 84.433 47.8025 84.4047 47.8927 84.4471C47.9679 84.4896 48.2385 84.4755 48.4791 84.4047C48.9001 84.2915 48.9001 84.2915 48.3137 84.2633C47.9528 84.2491 48.7196 84.0795 50.1932 83.839C54.7792 83.1035 58.5532 82.2125 61.6506 81.1377C63.4249 80.5154 66.8682 79.1011 67.1088 78.8748C67.184 78.8041 55.4408 78.7476 36.2848 78.7617L5.31055 78.7758L6.81421 79.4547Z" fill="#151618" fill-opacity="1.000000" fill-rule="nonzero"/>
	<path d="M5.82715 100.515L5.625 100.515C5.61914 100.515 5.60156 100.518 5.57227 100.524C5.54883 100.53 5.52246 100.539 5.49316 100.551C5.46387 100.556 5.43457 100.562 5.40527 100.568C5.37598 100.574 5.3584 100.577 5.35254 100.577C5.05371 100.606 4.75195 100.624 4.44727 100.63C4.14258 100.641 3.83789 100.647 3.5332 100.647C3.46875 100.647 3.38672 100.644 3.28711 100.638C3.19336 100.638 3.10254 100.627 3.01465 100.603C2.92676 100.574 2.85059 100.533 2.78613 100.48C2.72168 100.427 2.68945 100.351 2.68945 100.252C2.68945 100.176 2.70703 100.099 2.74219 100.023C2.77734 99.947 2.82715 99.8943 2.8916 99.865C2.9502 99.8591 3.05273 99.8533 3.19922 99.8474C3.3457 99.8416 3.49805 99.8357 3.65625 99.8298C3.82031 99.8181 3.97559 99.8093 4.12207 99.8035C4.26855 99.7917 4.37109 99.78 4.42969 99.7683C4.46484 99.7683 4.51172 99.7683 4.57031 99.7683C4.62891 99.7625 4.6875 99.7537 4.74609 99.7419C4.81055 99.7244 4.86621 99.7039 4.91309 99.6804C4.96582 99.657 5.00684 99.6248 5.03613 99.5837C5.10645 99.4373 5.1416 99.282 5.1416 99.1179L5.1416 98.8455L5.1416 98.1423C5.1416 98.1248 5.14453 98.0837 5.15039 98.0193C5.16211 97.9548 5.1709 97.8845 5.17676 97.8083C5.18848 97.7322 5.2002 97.6589 5.21191 97.5886C5.22363 97.5183 5.22949 97.4744 5.22949 97.4568C5.25879 96.8474 5.27637 96.2351 5.28223 95.6199C5.28809 95.0046 5.29102 94.3923 5.29102 93.783C5.29102 93.5251 5.28809 93.2732 5.28223 93.0271C5.27637 92.781 5.27344 92.5349 5.27344 92.2888C5.27344 92.2009 5.27344 92.0574 5.27344 91.8582C5.2793 91.6531 5.28223 91.4421 5.28223 91.2253C5.28223 91.0027 5.28223 90.7947 5.28223 90.6013C5.28809 90.4021 5.29102 90.2644 5.29102 90.1882C5.26172 90.071 5.2207 89.9744 5.16797 89.8982C5.12109 89.8162 5.05664 89.7371 4.97461 89.6609C4.94531 89.655 4.89258 89.6492 4.81641 89.6433C4.74609 89.6316 4.66992 89.6228 4.58789 89.6169C4.51172 89.6052 4.43555 89.5964 4.35938 89.5906C4.28906 89.5847 4.23926 89.5818 4.20996 89.5818C4.19824 89.5818 4.16895 89.5876 4.12207 89.5994C4.08105 89.6052 4.03418 89.614 3.98145 89.6257C3.93457 89.6316 3.8877 89.6404 3.84082 89.6521C3.79395 89.658 3.76465 89.6609 3.75293 89.6609C3.71777 89.6667 3.64453 89.6697 3.5332 89.6697C3.42773 89.6697 3.31348 89.6697 3.19043 89.6697C3.07324 89.6697 2.96191 89.6697 2.85645 89.6697C2.75098 89.6697 2.6748 89.6667 2.62793 89.6609C2.54004 89.696 2.44336 89.7224 2.33789 89.74C2.23242 89.7517 2.13281 89.7898 2.03906 89.8542C2.03906 89.866 2.02148 89.8894 1.98633 89.9246C1.95117 89.9597 1.92773 89.9832 1.91602 89.9949C1.86914 90.0476 1.80469 90.1208 1.72266 90.2146C1.64648 90.3025 1.57031 90.3933 1.49414 90.4871C1.41797 90.5808 1.34766 90.6628 1.2832 90.7332C1.22461 90.8035 1.19238 90.8416 1.18652 90.8474C1.14551 90.9001 1.10449 90.9734 1.06348 91.0671C1.02832 91.155 0.987305 91.2429 0.94043 91.3308C0.893555 91.4128 0.837891 91.4861 0.773438 91.5505C0.708984 91.615 0.629883 91.6472 0.536133 91.6472C0.46582 91.6472 0.416016 91.6296 0.386719 91.5945C0.357422 91.5535 0.333984 91.5066 0.316406 91.4539C0.316406 91.4363 0.316406 91.4099 0.316406 91.3748C0.316406 91.3337 0.313477 91.2927 0.307617 91.2517C0.307617 91.2048 0.307617 91.1609 0.307617 91.1199C0.307617 91.073 0.307617 91.0408 0.307617 91.0232C0.307617 91.0056 0.307617 90.9792 0.307617 90.9441C0.307617 90.9031 0.307617 90.865 0.307617 90.8298C0.313477 90.7888 0.316406 90.7537 0.316406 90.7244C0.316406 90.6892 0.316406 90.6687 0.316406 90.6628C0.322266 90.6453 0.333984 90.6013 0.351562 90.531C0.375 90.4548 0.398438 90.3757 0.421875 90.2937C0.445312 90.2117 0.46582 90.1355 0.483398 90.0652C0.506836 89.9949 0.524414 89.9509 0.536133 89.9333C0.536133 89.9158 0.541992 89.8777 0.553711 89.8191C0.56543 89.7605 0.577148 89.699 0.588867 89.6345C0.606445 89.5642 0.621094 89.5027 0.632812 89.45C0.644531 89.3914 0.65332 89.3533 0.65918 89.3357C0.65918 89.324 0.667969 89.2917 0.685547 89.239C0.708984 89.1863 0.732422 89.1277 0.755859 89.0632C0.779297 88.9988 0.799805 88.9402 0.817383 88.8875C0.84082 88.8347 0.852539 88.8025 0.852539 88.7908C0.870117 88.7439 0.887695 88.6912 0.905273 88.6326C0.928711 88.5681 0.955078 88.5095 0.984375 88.4568C1.01953 88.4041 1.06055 88.3601 1.10742 88.325C1.1543 88.2839 1.20996 88.2634 1.27441 88.2634C1.37402 88.2634 1.45312 88.2898 1.51172 88.3425C1.57617 88.3953 1.63477 88.4539 1.6875 88.5183C1.74023 88.5828 1.79297 88.6501 1.8457 88.7205C1.89844 88.7849 1.96289 88.8289 2.03906 88.8523C2.16211 88.8523 2.29102 88.8494 2.42578 88.8435C2.56055 88.8376 2.69531 88.8347 2.83008 88.8347C3.08203 88.8347 3.33105 88.8406 3.57715 88.8523C3.82324 88.864 4.06641 88.8904 4.30664 88.9314C4.30664 88.9314 4.31836 88.9373 4.3418 88.949C4.36523 88.9548 4.38867 88.9636 4.41211 88.9753C4.44141 88.9812 4.46777 88.9871 4.49121 88.9929C4.52051 88.9988 4.53809 89.0017 4.54395 89.0017L4.8252 89.0017C4.97754 89.0017 5.11523 88.9871 5.23828 88.9578C5.36719 88.9285 5.51074 88.9138 5.66895 88.9138C5.69238 88.9138 5.72461 88.9138 5.76562 88.9138C5.8125 88.9138 5.85938 88.9138 5.90625 88.9138C5.95312 88.9138 5.99414 88.9167 6.0293 88.9226C6.06445 88.9226 6.08789 88.9255 6.09961 88.9314C6.12305 88.9314 6.16992 88.9373 6.24023 88.949C6.31641 88.9548 6.39844 88.9636 6.48633 88.9753C6.57422 88.9812 6.65332 88.9871 6.72363 88.9929C6.7998 88.9988 6.84961 89.0017 6.87305 89.0017C6.91992 88.9841 6.97559 88.9695 7.04004 88.9578C7.11035 88.946 7.20117 88.9373 7.3125 88.9314C7.42969 88.9255 7.57617 88.9226 7.75195 88.9226C7.92773 88.9167 8.14746 88.9138 8.41113 88.9138L10.002 88.9314C10.1016 88.9314 10.2041 88.8992 10.3096 88.8347C10.415 88.7644 10.5205 88.6853 10.626 88.5974C10.7314 88.5037 10.834 88.4128 10.9336 88.325C11.0391 88.2371 11.1416 88.1755 11.2412 88.1404L11.3467 88.1404C11.5166 88.1404 11.6367 88.2312 11.707 88.4128C11.7129 88.4832 11.7246 88.615 11.7422 88.8083C11.7598 88.9958 11.7773 89.1951 11.7949 89.406C11.8184 89.6169 11.8418 89.8162 11.8652 90.0037C11.8887 90.1912 11.9062 90.323 11.918 90.3992C11.918 90.4109 11.9209 90.4314 11.9268 90.4607C11.9326 90.49 11.9385 90.5251 11.9443 90.5662C11.9561 90.6013 11.9648 90.6365 11.9707 90.6716C11.9766 90.7009 11.9795 90.7185 11.9795 90.7244L11.9795 90.8562C11.9795 91.0085 11.9736 91.1462 11.9619 91.2693C11.9502 91.3923 11.9355 91.533 11.918 91.6912C11.8945 91.738 11.8652 91.7703 11.8301 91.7878C11.8008 91.7996 11.7715 91.8054 11.7422 91.8054C11.7246 91.8054 11.707 91.7966 11.6895 91.7791C11.6719 91.7732 11.6572 91.7644 11.6455 91.7527C11.5576 91.7117 11.4814 91.6531 11.417 91.5769C11.3584 91.5007 11.3057 91.4187 11.2588 91.3308C11.2178 91.2429 11.1797 91.1521 11.1445 91.0583C11.1094 90.9587 11.0742 90.8679 11.0391 90.7859C10.9395 90.5339 10.7754 90.3318 10.5469 90.1794C10.3242 90.0271 10.0928 89.8982 9.85254 89.7927C9.7002 89.7283 9.55078 89.696 9.4043 89.696C9.25781 89.696 9.09961 89.6843 8.92969 89.6609C8.91797 89.6609 8.87402 89.6492 8.79785 89.6257C8.72754 89.5964 8.68066 89.5818 8.65723 89.5818L8.26172 89.5818L7.81348 89.5818C7.7666 89.5818 7.69922 89.5935 7.61133 89.6169C7.52344 89.6345 7.47656 89.6492 7.4707 89.6609C7.45312 89.6843 7.43262 89.7078 7.40918 89.7312C7.36816 89.7839 7.3418 89.825 7.33008 89.8542C7.30664 89.8953 7.28027 89.9509 7.25098 90.0212C7.22168 90.0857 7.20703 90.1208 7.20703 90.1267C7.20117 90.1443 7.19531 90.1765 7.18945 90.2234C7.18359 90.2644 7.17773 90.3083 7.17188 90.3552C7.17188 90.4021 7.16895 90.449 7.16309 90.4958C7.15723 90.5369 7.15137 90.5662 7.14551 90.5837C7.14551 90.6775 7.14844 90.8386 7.1543 91.0671C7.16016 91.2957 7.16309 91.5417 7.16309 91.8054C7.16309 92.0691 7.16016 92.3181 7.1543 92.5525C7.14844 92.781 7.14551 92.9363 7.14551 93.0183C7.14551 93.3171 7.12207 93.6101 7.0752 93.8972C7.03418 94.1785 7.01367 94.4685 7.01367 94.7673C7.01367 95.0896 7.02246 95.4119 7.04004 95.7341C7.06348 96.0505 7.0752 96.3757 7.0752 96.7097C7.0752 97.114 7.06348 97.5212 7.04004 97.9314C7.02246 98.3416 7.01367 98.7517 7.01367 99.1619C7.01367 99.2849 7.04004 99.3816 7.09277 99.4519C7.15137 99.5222 7.22461 99.575 7.3125 99.6101C7.40039 99.6453 7.49707 99.6687 7.60254 99.6804C7.71387 99.6921 7.81934 99.7009 7.91895 99.7068C7.96582 99.7126 8.03906 99.7185 8.13867 99.7244C8.24414 99.7302 8.35254 99.7361 8.46387 99.7419C8.58105 99.7478 8.68945 99.7537 8.78906 99.7595C8.88867 99.7654 8.95898 99.7683 9 99.7683C9.11133 99.8093 9.19336 99.8738 9.24609 99.9617C9.30469 100.05 9.33398 100.146 9.33398 100.252C9.33398 100.386 9.2959 100.492 9.21973 100.568C9.14355 100.638 9.04688 100.712 8.92969 100.788L8.91211 100.788C8.69531 100.788 8.49316 100.77 8.30566 100.735C8.12402 100.706 7.93066 100.677 7.72559 100.647C7.09863 100.559 6.46582 100.515 5.82715 100.515ZM12.6738 100.621C12.6738 100.597 12.6562 100.565 12.6211 100.524C12.5918 100.477 12.5742 100.439 12.5684 100.41L12.5684 100.375L12.5684 100.366C12.5801 100.343 12.6064 100.307 12.6475 100.26C12.6885 100.214 12.7324 100.167 12.7793 100.12C12.832 100.067 12.8789 100.02 12.9199 99.9792C12.9668 99.9382 12.999 99.9089 13.0166 99.8914C13.0283 99.8796 13.0664 99.8679 13.1309 99.8562C13.2012 99.8386 13.251 99.8298 13.2803 99.8298L13.9043 99.8298C13.9219 99.8298 13.9453 99.8269 13.9746 99.821C14.0098 99.8093 14.042 99.8005 14.0713 99.7947C14.1064 99.783 14.1357 99.7712 14.1592 99.7595C14.1885 99.7478 14.2031 99.7419 14.2031 99.7419C14.2852 99.7009 14.332 99.6365 14.3438 99.5486C14.3613 99.4548 14.3701 99.3669 14.3701 99.2849L14.3701 99.1443C14.3701 98.9392 14.3643 98.7458 14.3525 98.5642C14.3467 98.3767 14.3438 98.1804 14.3438 97.9753L14.3438 97.9138C14.3438 97.8962 14.3467 97.864 14.3525 97.8171C14.3584 97.7703 14.3643 97.7205 14.3701 97.6677C14.3818 97.6091 14.3936 97.5564 14.4053 97.5095C14.417 97.4626 14.4258 97.4304 14.4316 97.4128L14.4316 93.5808C14.4316 93.4636 14.4111 93.3699 14.3701 93.2996C14.3291 93.2292 14.2764 93.1765 14.2119 93.1414C14.1475 93.1003 14.0713 93.074 13.9834 93.0623C13.9014 93.0505 13.8135 93.0447 13.7197 93.0447L13.3594 93.0447C13.1953 93.0447 13.0576 93.0242 12.9463 92.9832C12.835 92.9421 12.7793 92.8425 12.7793 92.6843C12.7793 92.6316 12.7793 92.5847 12.7793 92.5437C12.7852 92.5027 12.7998 92.447 12.8232 92.3767C13.1045 92.3884 13.3799 92.3796 13.6494 92.3503C13.9189 92.321 14.1914 92.3064 14.4668 92.3064L14.6953 92.3064C14.7188 92.3123 14.7656 92.3181 14.8359 92.324C14.9121 92.3298 14.9883 92.3357 15.0645 92.3416C15.1465 92.3474 15.2227 92.3533 15.293 92.3591C15.3633 92.365 15.4131 92.3708 15.4424 92.3767L19.5732 92.3767C19.749 92.3767 19.875 92.4236 19.9512 92.5173C20.0273 92.6052 20.083 92.7166 20.1182 92.8513L20.1182 93.3523L20.1182 93.8708C20.1182 93.906 20.1123 93.9705 20.1006 94.0642C20.0889 94.1521 20.0742 94.2488 20.0566 94.3542C20.0449 94.4539 20.0303 94.5535 20.0127 94.6531C20.001 94.7468 19.9922 94.8142 19.9863 94.8552C19.9746 94.8728 19.9541 94.8992 19.9248 94.9343C19.8955 94.9636 19.875 94.9783 19.8633 94.9783C19.8633 94.99 19.8574 94.9958 19.8457 94.9958L19.8369 94.9958L19.8105 94.9958C19.793 94.9958 19.7842 94.99 19.7842 94.9783C19.6846 94.908 19.6084 94.8289 19.5557 94.741C19.5029 94.6472 19.459 94.5505 19.4238 94.4509C19.3887 94.3513 19.3564 94.2517 19.3271 94.1521C19.2979 94.0525 19.2539 93.9587 19.1953 93.8708C19.1836 93.8474 19.1455 93.8093 19.0811 93.7566C19.0225 93.698 18.9902 93.6658 18.9844 93.6599C18.9727 93.6482 18.9463 93.616 18.9053 93.5632C18.8701 93.5105 18.8291 93.4548 18.7822 93.3962C18.7412 93.3318 18.7002 93.2732 18.6592 93.2205C18.624 93.1677 18.6006 93.1355 18.5889 93.1238C18.5654 93.071 18.5391 93.0447 18.5098 93.0447C18.5039 93.0447 18.4834 93.0417 18.4482 93.0359C18.4189 93.03 18.3838 93.0242 18.3428 93.0183C18.3076 93.0066 18.2725 92.9978 18.2373 92.9919C18.208 92.9861 18.1934 92.9802 18.1934 92.9744C18.1758 92.9744 18.1436 92.9685 18.0967 92.9568C18.0498 92.9451 17.9971 92.9333 17.9385 92.9216C17.8857 92.9099 17.8359 92.8982 17.7891 92.8865C17.7422 92.8689 17.7129 92.8572 17.7012 92.8513L17.6572 92.8513C17.6338 92.8513 17.6016 92.8601 17.5605 92.8777C17.5195 92.8894 17.4902 92.8953 17.4727 92.8953L17.4463 92.8953C17.4287 92.8894 17.3789 92.8835 17.2969 92.8777C17.2207 92.8718 17.1357 92.8689 17.042 92.8689C16.9482 92.863 16.8604 92.8601 16.7783 92.8601C16.7021 92.8542 16.6553 92.8513 16.6377 92.8513L16.6113 92.8513C16.5059 92.8513 16.418 92.8718 16.3477 92.9128C16.2773 92.9539 16.2188 93.0066 16.1719 93.071C16.1309 93.1355 16.0928 93.2087 16.0576 93.2908C16.0283 93.3669 15.999 93.4431 15.9697 93.5193C15.9639 93.5837 15.9521 93.6892 15.9346 93.8357C15.9229 93.9822 15.9082 94.1375 15.8906 94.3015C15.8789 94.4656 15.8672 94.6208 15.8555 94.7673C15.8438 94.9138 15.8379 95.0164 15.8379 95.075L15.8379 95.1453L15.8379 95.1892C15.8379 95.2185 15.8408 95.2683 15.8467 95.3386C15.8525 95.4089 15.8584 95.4851 15.8643 95.5671C15.8701 95.6433 15.876 95.7195 15.8818 95.7957C15.8936 95.866 15.9023 95.9128 15.9082 95.9363C15.9492 95.989 15.9961 96.0417 16.0488 96.0945C16.1074 96.1472 16.1689 96.1824 16.2334 96.2L16.7168 96.2C16.916 96.2 17.0889 96.197 17.2354 96.1912C17.3877 96.1853 17.5693 96.1677 17.7803 96.1384C17.7861 96.1267 17.7949 96.1062 17.8066 96.0769C17.8184 96.0476 17.833 96.0183 17.8506 95.989C17.8682 95.9597 17.8828 95.9333 17.8945 95.9099C17.9062 95.8865 17.915 95.8718 17.9209 95.866C17.9443 95.825 17.9736 95.7664 18.0088 95.6902C18.0439 95.6082 18.0791 95.5291 18.1143 95.4529C18.1494 95.3708 18.1787 95.3005 18.2021 95.2419C18.2314 95.1833 18.249 95.1511 18.2549 95.1453C18.2666 95.1218 18.2783 95.072 18.29 94.9958C18.3018 94.9138 18.3135 94.8669 18.3252 94.8552C18.3721 94.8025 18.4336 94.7673 18.5098 94.7498C18.5859 94.7322 18.6621 94.7234 18.7383 94.7234C18.8203 94.7234 18.8701 94.7556 18.8877 94.8201C18.9111 94.8787 18.9229 94.946 18.9229 95.0222L18.9229 95.2419L18.9229 95.3474C18.9229 95.4001 18.917 95.4529 18.9053 95.5056C18.8936 95.5525 18.873 95.5994 18.8438 95.6462C18.8379 95.699 18.832 95.7869 18.8262 95.9099C18.8203 96.033 18.8145 96.1619 18.8086 96.2966C18.8027 96.4314 18.7969 96.5603 18.791 96.6833C18.7852 96.8005 18.7822 96.8826 18.7822 96.9294L18.7822 97.158L18.7822 97.6853C18.7764 97.697 18.7705 97.7234 18.7646 97.7644C18.7588 97.8054 18.7529 97.8523 18.7471 97.905C18.7471 97.9519 18.7441 97.9988 18.7383 98.0457C18.7324 98.0925 18.7266 98.1248 18.7207 98.1423C18.6562 98.1892 18.5977 98.2244 18.5449 98.2478C18.498 98.2712 18.4395 98.283 18.3691 98.283C18.3223 98.283 18.2783 98.2654 18.2373 98.2302C18.1963 98.1892 18.1582 98.1394 18.123 98.0808C18.0879 98.0222 18.0586 97.9636 18.0352 97.905C18.0117 97.8406 17.9971 97.782 17.9912 97.7292C17.9854 97.7117 17.9766 97.6736 17.9648 97.615C17.959 97.5505 17.9531 97.4832 17.9473 97.4128C17.9414 97.3367 17.9355 97.2664 17.9297 97.2019C17.9238 97.1375 17.9209 97.0906 17.9209 97.0613C17.9033 97.0378 17.8711 97.0173 17.8242 96.9998C17.7832 96.9763 17.7422 96.9529 17.7012 96.9294C17.666 96.9177 17.6104 96.9031 17.5342 96.8855C17.458 96.8679 17.376 96.8533 17.2881 96.8416C17.2061 96.824 17.127 96.8123 17.0508 96.8064C16.9805 96.7947 16.9336 96.7888 16.9102 96.7888C16.8926 96.7888 16.8604 96.7888 16.8135 96.7888C16.7725 96.783 16.7227 96.78 16.6641 96.78C16.6113 96.78 16.5586 96.78 16.5059 96.78C16.4531 96.7742 16.4121 96.7712 16.3828 96.7712C16.3652 96.7712 16.3359 96.7742 16.2949 96.78C16.2598 96.78 16.2217 96.78 16.1807 96.78C16.1455 96.78 16.1133 96.783 16.084 96.7888C16.0547 96.7888 16.0371 96.7888 16.0312 96.7888L15.9082 96.9294L15.9082 97.2283C15.9082 97.574 15.8965 97.908 15.873 98.2302C15.8496 98.5466 15.8379 98.8777 15.8379 99.2234C15.8379 99.3992 15.8525 99.5281 15.8818 99.6101C15.9111 99.6921 15.958 99.7507 16.0225 99.7859C16.0869 99.821 16.1689 99.8474 16.2686 99.865C16.3682 99.8826 16.4912 99.9119 16.6377 99.9529C16.6494 99.9529 16.6699 99.9617 16.6992 99.9792C16.7285 99.9968 16.749 100.014 16.7607 100.032L17.4463 100.032L18.0967 100.032C18.1084 100.032 18.1348 100.029 18.1758 100.023C18.2168 100.011 18.2607 100.003 18.3076 99.9968C18.3545 99.9851 18.3955 99.9763 18.4307 99.9705C18.4717 99.9587 18.498 99.9529 18.5098 99.9529L18.9316 99.9529L19.0986 99.9529C19.1104 99.9529 19.1309 99.9441 19.1602 99.9265C19.1895 99.9031 19.2188 99.8796 19.248 99.8562C19.2832 99.8269 19.3125 99.8005 19.3359 99.7771C19.3594 99.7537 19.374 99.7419 19.3799 99.7419C19.4209 99.7244 19.4531 99.7156 19.4766 99.7156C19.5059 99.7097 19.5293 99.7068 19.5469 99.7068C19.5645 99.7009 19.582 99.6921 19.5996 99.6804C19.6172 99.6628 19.6348 99.6365 19.6523 99.6013C19.7168 99.5076 19.7637 99.4109 19.793 99.3113C19.8223 99.2117 19.8604 99.1121 19.9072 99.0125C19.9307 98.9949 19.96 98.9597 19.9951 98.907C20.0303 98.8484 20.0508 98.8103 20.0566 98.7927C20.0625 98.7927 20.0801 98.7839 20.1094 98.7664C20.1387 98.7429 20.168 98.7195 20.1973 98.696C20.2266 98.6667 20.2529 98.6404 20.2764 98.6169C20.2998 98.5876 20.3145 98.5671 20.3203 98.5554C20.3262 98.5378 20.3379 98.5144 20.3555 98.4851C20.3789 98.45 20.4023 98.4148 20.4258 98.3796C20.4492 98.3386 20.4697 98.3035 20.4873 98.2742C20.5107 98.239 20.5254 98.2156 20.5312 98.2039C20.5312 98.198 20.54 98.1863 20.5576 98.1687C20.5693 98.1628 20.5811 98.1541 20.5928 98.1423C20.5928 98.1306 20.5957 98.1248 20.6016 98.1248L20.6191 98.1248C20.707 98.1248 20.7598 98.1599 20.7773 98.2302C20.7949 98.2947 20.8037 98.3621 20.8037 98.4324L20.8037 98.6169C20.8037 98.6462 20.8066 98.7166 20.8125 98.8279C20.8184 98.9392 20.8213 99.0593 20.8213 99.1882C20.8271 99.3113 20.833 99.4285 20.8389 99.5398C20.8447 99.6511 20.8477 99.7185 20.8477 99.7419L20.8477 99.7683C20.8477 99.8445 20.833 99.9324 20.8037 100.032C20.7744 100.126 20.7334 100.217 20.6807 100.304C20.6279 100.392 20.5635 100.466 20.4873 100.524C20.417 100.583 20.3408 100.615 20.2588 100.621C20.2178 100.615 20.1416 100.609 20.0303 100.603C19.9248 100.597 19.8105 100.592 19.6875 100.586C19.5645 100.58 19.4473 100.574 19.3359 100.568C19.2246 100.562 19.1455 100.553 19.0986 100.542L18.9316 100.542L18.7822 100.542C18.7529 100.553 18.6855 100.565 18.5801 100.577C18.4746 100.583 18.3604 100.589 18.2373 100.594C18.1201 100.6 18.0059 100.606 17.8945 100.612C17.7891 100.618 17.7246 100.621 17.7012 100.621L14.3701 100.621C14.3525 100.627 14.3232 100.633 14.2822 100.638C14.2471 100.644 14.2061 100.647 14.1592 100.647C14.1182 100.653 14.0771 100.656 14.0361 100.656C13.9951 100.662 13.9658 100.665 13.9482 100.665C13.9482 100.677 13.9277 100.682 13.8867 100.682C13.8457 100.682 13.8076 100.679 13.7725 100.674C13.7373 100.668 13.7139 100.665 13.7021 100.665C13.6787 100.682 13.6318 100.703 13.5615 100.726C13.4912 100.75 13.4414 100.761 13.4121 100.761C13.3828 100.761 13.333 100.756 13.2627 100.744C13.1982 100.732 13.1279 100.718 13.0518 100.7C12.9756 100.688 12.9023 100.674 12.832 100.656C12.7617 100.644 12.709 100.633 12.6738 100.621ZM24.293 97.1404C24.293 97.2224 24.3311 97.281 24.4072 97.3162C24.4834 97.3513 24.5537 97.3689 24.6182 97.3689L25.084 97.3689C25.1484 97.3689 25.2129 97.3718 25.2773 97.3777C25.3418 97.3835 25.4062 97.3865 25.4707 97.3865C25.623 97.3865 25.7549 97.363 25.8662 97.3162C25.9775 97.2634 26.0332 97.1492 26.0332 96.9734L26.0332 96.824C25.9805 96.5544 25.9014 96.2878 25.7959 96.0242C25.6904 95.7546 25.5908 95.4939 25.4971 95.2419C25.4854 95.2009 25.4678 95.157 25.4443 95.1101C25.4268 95.0574 25.4033 95.0105 25.374 94.9695C25.3447 94.9226 25.3125 94.8845 25.2773 94.8552C25.2422 94.8259 25.2041 94.8113 25.1631 94.8113C25.0869 94.8113 25.0254 94.8435 24.9785 94.908C24.9375 94.9724 24.9023 95.0486 24.873 95.1365C24.8496 95.2244 24.8291 95.3152 24.8115 95.4089C24.7939 95.4968 24.7734 95.5671 24.75 95.6199C24.7324 95.6726 24.7002 95.7664 24.6533 95.9011C24.6123 96.0359 24.5684 96.1794 24.5215 96.3318C24.4746 96.4783 24.4277 96.6189 24.3809 96.7537C24.3398 96.8884 24.3105 96.9822 24.293 97.0349L24.293 97.1404ZM22.2451 100.577L22.2012 100.577C22.1895 100.577 22.1602 100.583 22.1133 100.594C22.0664 100.6 22.0137 100.609 21.9551 100.621C21.8965 100.627 21.8408 100.633 21.7881 100.638C21.7412 100.644 21.7119 100.647 21.7002 100.647L21.6475 100.647C21.6123 100.647 21.583 100.633 21.5596 100.603C21.5361 100.574 21.5186 100.542 21.5068 100.507C21.4951 100.466 21.4893 100.427 21.4893 100.392C21.4834 100.351 21.4805 100.325 21.4805 100.313L21.4805 100.287C21.4805 100.181 21.5156 100.111 21.5859 100.076C21.6621 100.041 21.7354 100.009 21.8057 99.9792C21.8174 99.9792 21.8467 99.9705 21.8936 99.9529C21.9404 99.9294 21.9902 99.906 22.043 99.8826C22.1016 99.8591 22.1543 99.8386 22.2012 99.821C22.248 99.7976 22.2773 99.78 22.2891 99.7683C22.2949 99.7625 22.3125 99.7478 22.3418 99.7244C22.3711 99.6951 22.4033 99.6628 22.4385 99.6277C22.4736 99.5925 22.5059 99.5574 22.5352 99.5222C22.5703 99.4871 22.5996 99.4578 22.623 99.4343C22.6289 99.4226 22.6377 99.408 22.6494 99.3904C22.6729 99.3552 22.6846 99.3289 22.6846 99.3113C22.6846 99.2996 22.6904 99.2644 22.7021 99.2058C22.7197 99.1472 22.7344 99.1121 22.7461 99.1003C22.9043 98.7839 23.0625 98.4646 23.2207 98.1423C23.3789 97.8142 23.5283 97.4861 23.6689 97.158C23.6865 97.1404 23.71 97.0906 23.7393 97.0085C23.7744 96.9207 23.7979 96.8591 23.8096 96.824C23.8154 96.8123 23.8301 96.7771 23.8535 96.7185C23.877 96.6541 23.9004 96.5896 23.9238 96.5251C23.9473 96.4548 23.9678 96.3904 23.9854 96.3318C24.0088 96.2732 24.0205 96.238 24.0205 96.2263C24.0264 96.2087 24.0439 96.1677 24.0732 96.1033C24.1084 96.0388 24.1436 95.9685 24.1787 95.8923C24.2197 95.8162 24.2549 95.7429 24.2842 95.6726C24.3193 95.6023 24.3428 95.5583 24.3545 95.5408C24.4014 95.4353 24.4453 95.3416 24.4863 95.2595C24.5332 95.1716 24.5771 95.0691 24.6182 94.9519C24.6416 94.905 24.6709 94.8523 24.7061 94.7937C24.7471 94.7351 24.7852 94.6736 24.8203 94.6091C24.8555 94.5388 24.8848 94.4714 24.9082 94.407C24.9375 94.3425 24.9521 94.281 24.9521 94.2224L24.9521 94.0994C24.9521 94.0759 24.9434 94.0378 24.9258 93.9851C24.9141 93.9265 24.9082 93.8943 24.9082 93.8884C24.9082 93.8474 24.9316 93.7947 24.9785 93.7302C25.0254 93.6658 25.0605 93.6248 25.084 93.6072C25.0957 93.6013 25.1221 93.5896 25.1631 93.572C25.21 93.5544 25.2568 93.5339 25.3037 93.5105C25.3506 93.4871 25.3916 93.4666 25.4268 93.449C25.4678 93.4314 25.4912 93.4197 25.4971 93.4138C25.5088 93.4021 25.5322 93.3787 25.5674 93.3435C25.6025 93.3083 25.6406 93.2703 25.6816 93.2292C25.7285 93.1824 25.7695 93.1384 25.8047 93.0974C25.8457 93.0505 25.875 93.0183 25.8926 93.0007C25.8984 92.9949 25.9102 92.9773 25.9277 92.948C25.9453 92.9128 25.9658 92.8806 25.9893 92.8513C26.0127 92.8162 26.0391 92.7869 26.0684 92.7634C26.0977 92.7341 26.1299 92.7224 26.165 92.7283C26.2236 92.7458 26.2734 92.7986 26.3145 92.8865C26.3613 92.9744 26.3994 93.071 26.4287 93.1765C26.4639 93.2761 26.4932 93.3757 26.5166 93.4753C26.54 93.5691 26.5605 93.6335 26.5781 93.6687C26.584 93.698 26.5928 93.739 26.6045 93.7917C26.6221 93.8445 26.6367 93.8972 26.6484 93.95C26.666 94.0027 26.6807 94.0496 26.6924 94.0906C26.7041 94.1316 26.71 94.155 26.71 94.1609C26.7158 94.1785 26.7246 94.2195 26.7363 94.2839C26.748 94.3484 26.7598 94.4187 26.7715 94.4949C26.7891 94.571 26.8037 94.6414 26.8154 94.7058C26.8271 94.7644 26.833 94.7996 26.833 94.8113C26.8389 94.8289 26.8535 94.8845 26.877 94.9783C26.9062 95.072 26.9385 95.1804 26.9736 95.3035C27.0088 95.4265 27.0439 95.5496 27.0791 95.6726C27.1143 95.7898 27.1436 95.8835 27.167 95.9539C27.2139 96.1121 27.2725 96.2703 27.3428 96.4285C27.4131 96.5808 27.4658 96.7361 27.501 96.8943C27.5303 97.0291 27.5479 97.1375 27.5537 97.2195C27.5654 97.2957 27.5947 97.3894 27.6416 97.5007C27.6475 97.5125 27.6592 97.5388 27.6768 97.5798C27.7002 97.615 27.7236 97.656 27.7471 97.7029C27.7705 97.7439 27.791 97.7849 27.8086 97.8259C27.8262 97.8669 27.8379 97.8962 27.8438 97.9138C27.8438 97.9255 27.8467 97.946 27.8525 97.9753C27.8584 98.0046 27.8643 98.0398 27.8701 98.0808C27.8818 98.116 27.8906 98.1511 27.8965 98.1863C27.9023 98.2156 27.9082 98.2361 27.9141 98.2478C27.9141 98.2537 27.9199 98.2742 27.9316 98.3093C27.9434 98.3386 27.958 98.3738 27.9756 98.4148C27.9932 98.45 28.0078 98.4851 28.0195 98.5203C28.0371 98.5496 28.0488 98.5642 28.0547 98.5642C28.084 98.7166 28.1221 98.8806 28.1689 99.0564C28.2158 99.2322 28.2891 99.3875 28.3887 99.5222C28.4355 99.5925 28.5205 99.6511 28.6436 99.698C28.7725 99.7449 28.9014 99.7917 29.0303 99.8386C29.165 99.8855 29.2822 99.9382 29.3818 99.9968C29.4814 100.055 29.5312 100.132 29.5312 100.225C29.5312 100.325 29.5049 100.404 29.4521 100.463C29.4053 100.515 29.3438 100.556 29.2676 100.586C29.1914 100.615 29.1064 100.633 29.0127 100.638C28.9189 100.644 28.8311 100.647 28.749 100.647L28.5732 100.647L28.3887 100.647C28.2949 100.647 28.1309 100.644 27.8965 100.638C27.6621 100.633 27.4102 100.627 27.1406 100.621C26.877 100.609 26.625 100.6 26.3848 100.594C26.1504 100.583 25.9863 100.577 25.8926 100.577C25.8281 100.553 25.79 100.527 25.7783 100.498C25.7666 100.463 25.7607 100.413 25.7607 100.348L25.7607 100.287C25.7607 100.275 25.7637 100.263 25.7695 100.252C25.8223 100.14 25.8955 100.067 25.9893 100.032C26.083 99.991 26.1797 99.9587 26.2793 99.9353C26.3848 99.9119 26.4873 99.8855 26.5869 99.8562C26.6865 99.821 26.7686 99.7507 26.833 99.6453L26.8506 99.5837L26.833 99.5222C26.8271 99.4695 26.8125 99.3962 26.7891 99.3025C26.7715 99.2087 26.751 99.115 26.7275 99.0212C26.71 98.9275 26.6924 98.8455 26.6748 98.7751C26.6572 98.699 26.6455 98.655 26.6396 98.6433C26.6279 98.6316 26.6104 98.6023 26.5869 98.5554C26.5635 98.5085 26.5371 98.4558 26.5078 98.3972C26.4844 98.3386 26.458 98.283 26.4287 98.2302C26.4053 98.1716 26.3848 98.1277 26.3672 98.0984C26.3027 97.9988 26.2119 97.9402 26.0947 97.9226C25.9834 97.8992 25.8721 97.8875 25.7607 97.8875L25.585 97.8875C25.374 97.8875 25.1748 97.9021 24.9873 97.9314C24.8057 97.9607 24.6123 97.9753 24.4072 97.9753C24.3662 97.9753 24.3252 97.9724 24.2842 97.9666C24.2432 97.9607 24.2021 97.9578 24.1611 97.9578C24.1201 97.9988 24.0996 98.031 24.0996 98.0544C24.0879 98.0603 24.0732 98.0837 24.0557 98.1248C24.0439 98.1599 24.0293 98.2009 24.0117 98.2478C24 98.2888 23.9854 98.3298 23.9678 98.3708C23.9561 98.406 23.9502 98.4265 23.9502 98.4324C23.9502 98.4441 23.9297 98.4792 23.8887 98.5378C23.8535 98.5964 23.8271 98.6316 23.8096 98.6433C23.7393 98.7898 23.6982 98.9421 23.6865 99.1003C23.6748 99.2527 23.6689 99.4109 23.6689 99.575C23.6689 99.6687 23.6982 99.739 23.7568 99.7859C23.8154 99.8269 23.8887 99.8591 23.9766 99.8826C24.0645 99.906 24.1582 99.9265 24.2578 99.9441C24.3574 99.9558 24.4512 99.9763 24.5391 100.006C24.627 100.029 24.7002 100.067 24.7588 100.12C24.8174 100.173 24.8467 100.249 24.8467 100.348C24.8467 100.542 24.7559 100.662 24.5742 100.709C24.5508 100.709 24.5068 100.706 24.4424 100.7C24.3838 100.694 24.3223 100.688 24.2578 100.682C24.1934 100.677 24.1318 100.671 24.0732 100.665C24.0146 100.659 23.9736 100.653 23.9502 100.647L23.3262 100.647L23.0801 100.647C23.0625 100.647 23.0156 100.644 22.9395 100.638C22.8633 100.633 22.7783 100.627 22.6846 100.621C22.5908 100.609 22.5059 100.6 22.4297 100.594C22.3535 100.583 22.3066 100.577 22.2891 100.577L22.2451 100.577ZM31.1924 100.621C31.1807 100.621 31.1455 100.627 31.0869 100.638C31.0342 100.656 31.0049 100.665 30.999 100.665L30.9639 100.665C30.8877 100.665 30.8115 100.662 30.7354 100.656C30.665 100.65 30.6006 100.635 30.542 100.612C30.4893 100.589 30.4453 100.553 30.4102 100.507C30.375 100.46 30.3574 100.395 30.3574 100.313L30.3574 100.181C30.3633 100.123 30.4336 100.082 30.5684 100.058C30.709 100.029 30.8643 100.011 31.0342 100.006C31.2041 99.9939 31.3652 99.9851 31.5176 99.9792C31.6699 99.9675 31.7607 99.9441 31.79 99.9089C31.7959 99.8796 31.8018 99.8533 31.8076 99.8298C31.8135 99.8064 31.8193 99.7859 31.8252 99.7683C31.8311 99.7507 31.834 99.7361 31.834 99.7244C31.834 99.7009 31.8369 99.6658 31.8428 99.6189C31.8545 99.5662 31.8633 99.5134 31.8691 99.4607C31.8809 99.4021 31.8896 99.3494 31.8955 99.3025C31.9014 99.2556 31.9043 99.2234 31.9043 99.2058C31.9043 99.1589 31.9072 99.0623 31.9131 98.9158C31.9189 98.7634 31.9248 98.5994 31.9307 98.4236C31.9365 98.2478 31.9424 98.0779 31.9482 97.9138C31.9541 97.7498 31.957 97.6326 31.957 97.5623C31.957 97.533 31.957 97.4802 31.957 97.4041C31.9629 97.322 31.9658 97.2341 31.9658 97.1404C31.9658 97.0466 31.9629 96.9617 31.957 96.8855C31.957 96.8093 31.957 96.7507 31.957 96.7097L32.001 96.5955C32.001 96.5896 32.0039 96.531 32.0098 96.4197C32.0156 96.3025 32.0215 96.1648 32.0273 96.0066C32.0391 95.8484 32.0479 95.6873 32.0537 95.5232C32.0654 95.3591 32.0713 95.2244 32.0713 95.1189L32.0713 94.5212L32.0713 93.8972C32.0713 93.8738 32.0654 93.8386 32.0537 93.7917C32.0479 93.7449 32.042 93.698 32.0361 93.6511C32.0303 93.5984 32.0215 93.5544 32.0098 93.5193C32.0039 93.4783 32.001 93.4519 32.001 93.4402C31.9717 93.3523 31.9131 93.2908 31.8252 93.2556C31.7432 93.2146 31.6436 93.1853 31.5264 93.1677C31.415 93.1501 31.2949 93.1414 31.166 93.1414C31.043 93.1355 30.9287 93.1238 30.8232 93.1062C30.7178 93.0886 30.6299 93.0593 30.5596 93.0183C30.4951 92.9714 30.4629 92.9011 30.4629 92.8074C30.4629 92.7546 30.4805 92.7078 30.5156 92.6667C30.5508 92.6199 30.5918 92.5789 30.6387 92.5437C30.6855 92.5085 30.7354 92.4822 30.7881 92.4646C30.8467 92.4412 30.8965 92.4294 30.9375 92.4294C31.0195 92.4294 31.1191 92.4412 31.2363 92.4646C31.3535 92.488 31.4443 92.4939 31.5088 92.4822C31.5264 92.4822 31.5615 92.4792 31.6143 92.4734C31.667 92.4675 31.7227 92.4617 31.7812 92.4558C31.8457 92.45 31.9043 92.4441 31.957 92.4382C32.0156 92.4324 32.0537 92.4294 32.0713 92.4294C32.1006 92.4294 32.168 92.4324 32.2734 92.4382C32.3789 92.4441 32.4902 92.45 32.6074 92.4558C32.7305 92.4617 32.8447 92.4705 32.9502 92.4822C33.0557 92.488 33.123 92.4939 33.1523 92.4998L33.2578 92.4998L33.3369 92.4998C33.3486 92.4939 33.375 92.488 33.416 92.4822C33.457 92.4705 33.498 92.4617 33.5391 92.4558C33.5859 92.45 33.627 92.4441 33.6621 92.4382C33.7031 92.4324 33.7266 92.4294 33.7324 92.4294L34.1719 92.4294C34.1777 92.4294 34.1982 92.4265 34.2334 92.4207C34.2686 92.4148 34.3037 92.4089 34.3389 92.4031C34.3799 92.3972 34.415 92.3914 34.4443 92.3855C34.4795 92.3796 34.5 92.3767 34.5059 92.3767L34.541 92.3767C34.5527 92.3767 34.5615 92.3767 34.5674 92.3767C34.5791 92.3708 34.5908 92.3679 34.6025 92.3679C34.6729 92.3679 34.7432 92.3708 34.8135 92.3767C34.8838 92.3826 34.9482 92.3972 35.0068 92.4207C35.0654 92.4382 35.1123 92.4705 35.1475 92.5173C35.1885 92.5642 35.209 92.6287 35.209 92.7107C35.209 92.7283 35.2031 92.7546 35.1914 92.7898C35.1797 92.8191 35.1738 92.8396 35.1738 92.8513C35.127 92.8806 35.0537 92.9246 34.9541 92.9832C34.8545 93.0359 34.7725 93.0681 34.708 93.0798C34.6846 93.0798 34.6318 93.0857 34.5498 93.0974C34.4736 93.1033 34.3916 93.1121 34.3037 93.1238C34.2158 93.1296 34.1338 93.1384 34.0576 93.1501C33.9814 93.156 33.9346 93.1589 33.917 93.1589C33.8701 93.1648 33.8291 93.1853 33.7939 93.2205C33.7646 93.2498 33.7441 93.2878 33.7324 93.3347C33.6797 93.5984 33.6445 93.8591 33.627 94.1169C33.6152 94.3748 33.6094 94.6384 33.6094 94.908L33.6094 95.7517L33.6094 96.033C33.6094 96.0388 33.6035 96.074 33.5918 96.1384C33.5859 96.197 33.5771 96.2644 33.5654 96.3406C33.5596 96.4109 33.5508 96.4783 33.5391 96.5427C33.5332 96.6072 33.5303 96.6482 33.5303 96.6658L33.5303 98.0017L33.5303 98.5115C33.5303 98.5291 33.5273 98.5671 33.5215 98.6257C33.5156 98.6843 33.5098 98.7458 33.5039 98.8103C33.498 98.8748 33.4922 98.9333 33.4863 98.9861C33.4805 99.0388 33.4775 99.071 33.4775 99.0828L33.4775 99.1267L33.4775 99.2058C33.4775 99.2175 33.4863 99.2498 33.5039 99.3025C33.5215 99.3494 33.5303 99.3787 33.5303 99.3904C33.5303 99.4021 33.5215 99.4226 33.5039 99.4519C33.4863 99.4753 33.4775 99.4958 33.4775 99.5134C33.4717 99.531 33.4688 99.5486 33.4688 99.5662C33.4629 99.5779 33.46 99.5925 33.46 99.6101C33.46 99.6218 33.46 99.6335 33.46 99.6453C33.46 99.7566 33.4922 99.8621 33.5566 99.9617C33.627 100.055 33.7148 100.102 33.8203 100.102L33.873 100.102C34.043 100.073 34.2188 100.047 34.4004 100.023C34.5879 99.9939 34.7666 99.9792 34.9365 99.9792L36.4219 99.9792C36.4453 99.9792 36.4834 99.9763 36.5361 99.9705C36.5947 99.9646 36.6504 99.9587 36.7031 99.9529C36.7559 99.947 36.8027 99.9412 36.8438 99.9353C36.8848 99.9236 36.9082 99.9148 36.9141 99.9089C36.9258 99.9031 36.9492 99.8855 36.9844 99.8562C37.0195 99.821 37.0576 99.783 37.0986 99.7419C37.1455 99.6951 37.1865 99.6511 37.2217 99.6101C37.2627 99.5691 37.292 99.5369 37.3096 99.5134C37.3096 99.5076 37.3154 99.4929 37.3271 99.4695C37.3389 99.4402 37.3506 99.4138 37.3623 99.3904C37.374 99.3611 37.3857 99.3347 37.3975 99.3113C37.4092 99.2878 37.418 99.2732 37.4238 99.2673C37.4238 99.2615 37.4326 99.2527 37.4502 99.241C37.4736 99.2234 37.4971 99.2058 37.5205 99.1882C37.5439 99.1707 37.5645 99.156 37.582 99.1443C37.6055 99.1326 37.6201 99.1267 37.626 99.1267L37.6699 99.0828C37.6816 99.0769 37.7051 99.0447 37.7402 98.9861C37.7754 98.9216 37.793 98.8835 37.793 98.8718C37.8164 98.8484 37.8457 98.8132 37.8809 98.7664C37.9219 98.7136 37.9629 98.6609 38.0039 98.6082C38.0508 98.5496 38.0918 98.4968 38.127 98.45C38.1621 98.3972 38.1885 98.3621 38.2061 98.3445C38.2295 98.3152 38.2441 98.2976 38.25 98.2917C38.2617 98.2859 38.291 98.283 38.3379 98.283C38.4316 98.283 38.5049 98.321 38.5576 98.3972C38.6104 98.4675 38.6484 98.5525 38.6719 98.6521C38.6953 98.7517 38.707 98.8542 38.707 98.9597C38.7129 99.0593 38.7158 99.1414 38.7158 99.2058C38.7158 99.2351 38.7158 99.2703 38.7158 99.3113C38.7158 99.3523 38.7158 99.3933 38.7158 99.4343C38.7158 99.4753 38.7129 99.5105 38.707 99.5398C38.707 99.5691 38.707 99.5837 38.707 99.5837C38.707 99.5955 38.6982 99.6277 38.6807 99.6804C38.6631 99.7273 38.6543 99.7566 38.6543 99.7683C38.6426 99.9031 38.6367 100.02 38.6367 100.12C38.6367 100.214 38.6221 100.296 38.5928 100.366C38.5693 100.436 38.5225 100.495 38.4521 100.542C38.3877 100.589 38.2793 100.63 38.127 100.665C38.0742 100.671 37.9775 100.674 37.8369 100.674C37.6963 100.679 37.5439 100.682 37.3799 100.682C37.2217 100.682 37.0693 100.682 36.9229 100.682C36.7822 100.682 36.6826 100.682 36.624 100.682C36.5186 100.682 36.3838 100.682 36.2197 100.682C36.0557 100.682 35.8945 100.682 35.7363 100.682C35.584 100.682 35.4492 100.679 35.332 100.674C35.2148 100.674 35.1533 100.671 35.1475 100.665C35.1182 100.665 35.0596 100.662 34.9717 100.656C34.8896 100.656 34.7959 100.653 34.6904 100.647C34.5908 100.647 34.4912 100.644 34.3916 100.638C34.2979 100.633 34.2246 100.627 34.1719 100.621C34.166 100.621 34.1484 100.618 34.1191 100.612C34.0898 100.606 34.0576 100.6 34.0225 100.594C33.9873 100.589 33.9551 100.583 33.9258 100.577C33.8965 100.571 33.8789 100.565 33.873 100.559L33.8203 100.559L33.7324 100.559C33.7031 100.565 33.6445 100.571 33.5566 100.577C33.4688 100.583 33.375 100.589 33.2754 100.594C33.1758 100.6 33.0791 100.606 32.9854 100.612C32.8975 100.618 32.8418 100.621 32.8184 100.621L32.2295 100.621C32.2178 100.621 32.1768 100.627 32.1064 100.638C32.042 100.656 32.0068 100.665 32.001 100.665C31.96 100.688 31.9102 100.7 31.8516 100.7C31.7988 100.706 31.7578 100.709 31.7285 100.709C31.7109 100.709 31.6758 100.703 31.623 100.691C31.5703 100.685 31.5117 100.677 31.4473 100.665C31.3887 100.653 31.333 100.641 31.2803 100.63C31.2275 100.624 31.1982 100.621 31.1924 100.621ZM40.4912 93.6599C40.4736 93.5486 40.4502 93.4607 40.4209 93.3962C40.3916 93.3259 40.3535 93.2703 40.3066 93.2292C40.2598 93.1824 40.2012 93.1414 40.1309 93.1062C40.0605 93.071 39.9727 93.0271 39.8672 92.9744C39.8027 92.9451 39.7354 92.9246 39.665 92.9128C39.6006 92.8953 39.5596 92.8806 39.542 92.8689C39.5068 92.8279 39.4805 92.7722 39.4629 92.7019C39.4453 92.6257 39.4365 92.5701 39.4365 92.5349C39.4365 92.5232 39.4365 92.4998 39.4365 92.4646C39.4424 92.4236 39.457 92.3943 39.4805 92.3767C39.4922 92.3708 39.5244 92.3621 39.5771 92.3503C39.6299 92.3386 39.6709 92.3269 39.7002 92.3152C39.7588 92.3093 39.8232 92.3035 39.8936 92.2976C39.9697 92.2917 40.04 92.2888 40.1045 92.2888C40.2041 92.2888 40.3066 92.2976 40.4121 92.3152C40.5176 92.3269 40.6553 92.3474 40.8252 92.3767L41.1592 92.3767C41.2705 92.3767 41.376 92.3767 41.4756 92.3767C41.5752 92.3767 41.6719 92.3738 41.7656 92.3679C41.8594 92.3621 41.9531 92.3562 42.0469 92.3503C42.1406 92.3445 42.2432 92.3328 42.3545 92.3152C42.3721 92.3152 42.4072 92.3064 42.46 92.2888C42.5127 92.2712 42.5449 92.2625 42.5566 92.2625L42.6182 92.2625C42.7529 92.2625 42.876 92.2859 42.9873 92.3328C43.1045 92.3796 43.1631 92.4763 43.1631 92.6228C43.1631 92.7224 43.1279 92.7986 43.0576 92.8513C42.9873 92.9041 42.9023 92.9509 42.8027 92.9919C42.709 93.033 42.6123 93.074 42.5127 93.115C42.4189 93.1501 42.3457 93.2 42.293 93.2644C42.2344 93.3289 42.1875 93.408 42.1523 93.5017C42.1172 93.5896 42.0879 93.6863 42.0645 93.7917C42.0469 93.8914 42.0352 93.991 42.0293 94.0906C42.0234 94.1902 42.0205 94.2781 42.0205 94.3542C42.0205 94.448 42.0322 94.5242 42.0557 94.5828C42.085 94.6414 42.0996 94.7117 42.0996 94.7937C42.0996 94.8113 42.0967 94.8376 42.0908 94.8728C42.0908 94.9021 42.082 94.9226 42.0645 94.9343C42.0645 94.946 42.0615 94.9783 42.0557 95.031C42.0498 95.0837 42.0439 95.1423 42.0381 95.2068C42.0381 95.2654 42.0352 95.321 42.0293 95.3738C42.0234 95.4265 42.0205 95.4617 42.0205 95.4792L42.0205 96.2527C42.0205 96.282 42.0088 96.3318 41.9854 96.4021C41.9678 96.4724 41.9561 96.5193 41.9502 96.5427L41.9502 96.6394L41.9502 96.7273C41.9502 96.739 41.9531 96.7683 41.959 96.8152C41.9707 96.8621 41.9795 96.9119 41.9854 96.9646C41.9971 97.0173 42.0059 97.0671 42.0117 97.114C42.0176 97.1609 42.0205 97.1902 42.0205 97.2019C42.0264 97.2312 42.0293 97.2839 42.0293 97.3601C42.0352 97.4304 42.041 97.5066 42.0469 97.5886C42.0527 97.6648 42.0557 97.738 42.0557 97.8083C42.0615 97.8787 42.0645 97.9285 42.0645 97.9578C42.0703 98.0046 42.082 98.0662 42.0996 98.1423C42.1172 98.2126 42.1348 98.2859 42.1523 98.3621C42.1758 98.4382 42.1992 98.5115 42.2227 98.5818C42.2461 98.6521 42.2695 98.7078 42.293 98.7488C42.3164 98.8074 42.3574 98.8806 42.416 98.9685C42.4805 99.0564 42.5508 99.1443 42.627 99.2322C42.7031 99.3142 42.7793 99.3875 42.8555 99.4519C42.9375 99.5164 43.0137 99.5574 43.084 99.575C43.0957 99.575 43.1221 99.5867 43.1631 99.6101C43.2041 99.6277 43.2393 99.6365 43.2686 99.6365C43.3096 99.6365 43.3301 99.6394 43.3301 99.6453C43.3945 99.6511 43.4531 99.6658 43.5059 99.6892C43.5586 99.7068 43.6084 99.7273 43.6553 99.7507C43.7021 99.7683 43.752 99.7859 43.8047 99.8035C43.8574 99.821 43.916 99.8298 43.9805 99.8298L44.1035 99.8298C44.1094 99.824 44.1299 99.8123 44.165 99.7947C44.2002 99.7771 44.2354 99.7595 44.2705 99.7419C44.3115 99.7244 44.3467 99.7097 44.376 99.698C44.4111 99.6863 44.4316 99.6804 44.4375 99.6804L44.5781 99.6804C44.6367 99.6628 44.6982 99.6453 44.7627 99.6277C44.8096 99.616 44.8594 99.6072 44.9121 99.6013C44.9648 99.5896 45.0059 99.5808 45.0352 99.575C45.1934 99.5222 45.334 99.4255 45.457 99.2849C45.5859 99.1384 45.6885 99.0066 45.7646 98.8894C45.7705 98.8777 45.7793 98.8513 45.791 98.8103C45.8086 98.7693 45.8232 98.7283 45.835 98.6873C45.8525 98.6404 45.8672 98.5964 45.8789 98.5554C45.8906 98.5144 45.8965 98.488 45.8965 98.4763C45.9668 98.2947 46.0195 98.1042 46.0547 97.905C46.0898 97.7058 46.1133 97.5037 46.125 97.2986C46.1367 97.0876 46.1455 96.8796 46.1514 96.6746C46.1572 96.4695 46.1689 96.2703 46.1865 96.0769C46.1865 96.071 46.1895 96.0535 46.1953 96.0242C46.2012 95.989 46.2041 95.9539 46.2041 95.9187C46.21 95.8777 46.2158 95.8425 46.2217 95.8132C46.2275 95.7781 46.2305 95.7546 46.2305 95.7429L46.2305 95.3738L46.2305 94.9783C46.2246 94.9314 46.2158 94.8464 46.2041 94.7234C46.1924 94.6003 46.1777 94.4685 46.1602 94.3279C46.1484 94.1873 46.1367 94.0554 46.125 93.9324C46.1191 93.8035 46.1162 93.7126 46.1162 93.6599C46.1045 93.6306 46.0811 93.575 46.0459 93.4929C46.0107 93.405 45.9814 93.3494 45.958 93.3259C45.9521 93.2966 45.9434 93.2673 45.9316 93.238C45.9199 93.2029 45.9082 93.1853 45.8965 93.1853C45.8555 93.1443 45.8174 93.1238 45.7822 93.1238C45.7529 93.1238 45.7266 93.1267 45.7031 93.1326C45.6855 93.1384 45.665 93.1414 45.6416 93.1414C45.6123 93.1414 45.5859 93.1355 45.5625 93.1238C45.416 93.0945 45.2812 93.0593 45.1582 93.0183C45.041 92.9773 44.9326 92.8923 44.833 92.7634C44.8213 92.7341 44.8125 92.7136 44.8066 92.7019C44.8066 92.6902 44.8066 92.6638 44.8066 92.6228C44.8066 92.6111 44.8096 92.5994 44.8154 92.5876C44.8213 92.5701 44.8271 92.5554 44.833 92.5437C44.9268 92.4265 45.041 92.3562 45.1758 92.3328C45.3105 92.3035 45.4512 92.2888 45.5977 92.2888C45.7031 92.2888 45.8086 92.2947 45.9141 92.3064C46.0195 92.3123 46.1221 92.3152 46.2217 92.3152C46.2686 92.3152 46.3359 92.3064 46.4238 92.2888C46.5176 92.2712 46.5967 92.2625 46.6611 92.2625L47.2061 92.2625C47.2588 92.2625 47.3203 92.2595 47.3906 92.2537C47.4668 92.2478 47.543 92.2449 47.6191 92.2449C47.7363 92.2449 47.8506 92.2537 47.9619 92.2712C48.0732 92.2888 48.167 92.324 48.2432 92.3767C48.2549 92.3943 48.2607 92.4265 48.2607 92.4734C48.2666 92.5203 48.2695 92.5496 48.2695 92.5613C48.2695 92.6785 48.2402 92.7693 48.1816 92.8337C48.1289 92.8923 48.0586 92.9392 47.9707 92.9744C47.8887 93.0037 47.7979 93.0271 47.6982 93.0447C47.6045 93.0623 47.5166 93.0886 47.4346 93.1238C47.3408 93.1648 47.2646 93.2292 47.2061 93.3171C47.1475 93.405 47.1182 93.5017 47.1182 93.6072C47.1182 93.7009 47.127 93.783 47.1445 93.8533C47.168 93.9236 47.1797 94.0056 47.1797 94.0994L47.1797 94.2488C47.1797 94.2664 47.168 94.3044 47.1445 94.363C47.127 94.4216 47.1182 94.4539 47.1182 94.4597L47.1182 94.6794L47.1182 95.1892C47.1123 95.2537 47.1064 95.365 47.1006 95.5232C47.0947 95.6814 47.0859 95.8513 47.0742 96.033C47.0684 96.2087 47.0625 96.3757 47.0566 96.5339C47.0508 96.6921 47.0449 96.8035 47.0391 96.8679C47.0098 96.9265 46.9893 96.9851 46.9775 97.0437C46.9658 97.0964 46.957 97.1521 46.9512 97.2107C46.9453 97.2634 46.9395 97.3162 46.9336 97.3689C46.9336 97.4216 46.9248 97.4773 46.9072 97.5359C46.9014 97.5535 46.8926 97.5857 46.8809 97.6326C46.8691 97.6736 46.8545 97.7205 46.8369 97.7732C46.8252 97.8259 46.8135 97.8757 46.8018 97.9226C46.79 97.9636 46.7842 97.99 46.7842 98.0017C46.7725 98.0134 46.7637 98.0427 46.7578 98.0896C46.752 98.1306 46.7461 98.1746 46.7402 98.2214C46.7402 98.2625 46.7344 98.3035 46.7227 98.3445C46.7168 98.3796 46.7109 98.3972 46.7051 98.3972C46.7051 98.4148 46.6846 98.4558 46.6436 98.5203C46.6025 98.5789 46.5791 98.614 46.5732 98.6257C46.5615 98.6375 46.541 98.6755 46.5117 98.74C46.4824 98.8044 46.4473 98.8748 46.4062 98.9509C46.3711 99.0271 46.3359 99.0974 46.3008 99.1619C46.2656 99.2263 46.2422 99.2673 46.2305 99.2849C46.125 99.4841 45.9873 99.6628 45.8174 99.821C45.6533 99.9792 45.4775 100.14 45.29 100.304C45.2666 100.322 45.2314 100.348 45.1846 100.384C45.1377 100.413 45.0879 100.445 45.0352 100.48C44.9883 100.515 44.9443 100.548 44.9033 100.577C44.8623 100.6 44.8389 100.615 44.833 100.621L44.5781 100.621C44.4668 100.633 44.3672 100.644 44.2793 100.656C44.1973 100.674 44.1152 100.688 44.0332 100.7C43.9512 100.718 43.8662 100.732 43.7783 100.744C43.6904 100.756 43.5908 100.761 43.4795 100.761L42.9521 100.761C42.8877 100.732 42.8203 100.712 42.75 100.7C42.6797 100.688 42.6094 100.677 42.5391 100.665C42.4746 100.659 42.4102 100.647 42.3457 100.63C42.2812 100.618 42.2197 100.594 42.1611 100.559C42.1436 100.553 42.1055 100.533 42.0469 100.498C41.9883 100.457 41.9209 100.41 41.8447 100.357C41.7744 100.304 41.7041 100.255 41.6338 100.208C41.5635 100.155 41.5107 100.111 41.4756 100.076L41.4141 100.032C41.3672 99.9558 41.3174 99.8914 41.2646 99.8386C41.2119 99.78 41.1592 99.7244 41.1064 99.6716C41.0537 99.6189 41.001 99.5632 40.9482 99.5046C40.9014 99.4402 40.8604 99.3669 40.8252 99.2849C40.7021 99.0037 40.6143 98.7019 40.5615 98.3796C40.5146 98.0515 40.4912 97.7292 40.4912 97.4128C40.4854 97.3425 40.4795 97.2458 40.4736 97.1228C40.4736 96.9939 40.4736 96.8474 40.4736 96.6833C40.4736 96.5134 40.4736 96.3318 40.4736 96.1384C40.4736 95.9451 40.4736 95.7458 40.4736 95.5408C40.4736 95.3416 40.4736 95.1453 40.4736 94.9519C40.4736 94.7585 40.4736 94.5798 40.4736 94.4158C40.4736 94.2458 40.4736 94.0964 40.4736 93.9675C40.4795 93.8328 40.4854 93.7302 40.4912 93.6599ZM54.1318 93.6248C54.1787 93.6013 54.2109 93.5603 54.2285 93.5017C54.2461 93.4431 54.2549 93.3845 54.2549 93.3259C54.2549 93.2029 54.208 93.1179 54.1143 93.071C54.0264 93.0183 53.9268 92.9802 53.8154 92.9568C53.71 92.9275 53.6104 92.8982 53.5166 92.8689C53.4287 92.8337 53.3848 92.7722 53.3848 92.6843C53.3848 92.655 53.3965 92.6316 53.4199 92.614C53.4434 92.5906 53.4727 92.573 53.5078 92.5613C53.543 92.5437 53.5781 92.5291 53.6133 92.5173C53.6543 92.5056 53.6895 92.4939 53.7188 92.4822C53.748 92.4705 53.7949 92.4587 53.8594 92.447C53.9297 92.4353 53.9707 92.4294 53.9824 92.4294L55.5293 92.4294C55.6348 92.3826 55.7373 92.3562 55.8369 92.3503C55.9365 92.3386 56.0361 92.3328 56.1357 92.3328C56.2119 92.3328 56.2822 92.3357 56.3467 92.3416C56.417 92.3416 56.4756 92.3503 56.5225 92.3679C56.5752 92.3855 56.6162 92.4177 56.6455 92.4646C56.6748 92.5115 56.6895 92.5789 56.6895 92.6667C56.6895 92.7898 56.6543 92.8835 56.584 92.948C56.5195 93.0125 56.4375 93.0623 56.3379 93.0974C56.2383 93.1267 56.1328 93.1501 56.0215 93.1677C55.916 93.1853 55.8223 93.2058 55.7402 93.2292C55.4766 93.323 55.2422 93.449 55.0371 93.6072C54.8379 93.7595 54.6475 93.947 54.4658 94.1697C54.4482 94.1873 54.416 94.2253 54.3691 94.2839C54.3223 94.3367 54.2695 94.3953 54.2109 94.4597C54.1582 94.5242 54.1084 94.5857 54.0615 94.6443C54.0146 94.697 53.9824 94.7322 53.9648 94.7498C53.9414 94.7791 53.915 94.8142 53.8857 94.8552C53.8564 94.8962 53.8213 94.9314 53.7803 94.9607C53.7041 95.0251 53.6309 95.1072 53.5605 95.2068C53.4902 95.3064 53.4316 95.4031 53.3848 95.4968C53.3613 95.5378 53.3408 95.5759 53.3232 95.6111C53.3115 95.6462 53.3057 95.6931 53.3057 95.7517C53.3057 95.8748 53.3379 96.0037 53.4023 96.1384C53.4668 96.2732 53.5283 96.3992 53.5869 96.5164C53.6104 96.5515 53.6396 96.6042 53.6748 96.6746C53.71 96.739 53.7451 96.8035 53.7803 96.8679C53.8154 96.9324 53.8447 96.991 53.8682 97.0437C53.8975 97.0964 53.915 97.1287 53.9209 97.1404C53.9268 97.1521 53.9473 97.1873 53.9824 97.2458C54.0234 97.2986 54.0674 97.3601 54.1143 97.4304C54.1611 97.4949 54.2021 97.5564 54.2373 97.615C54.2783 97.6736 54.3047 97.7117 54.3164 97.7292L54.5273 98.1248C54.5977 98.2888 54.6709 98.4529 54.7471 98.6169C54.8232 98.7751 54.9053 98.9304 54.9932 99.0828C55.0811 99.2292 55.1807 99.3699 55.292 99.5046C55.4033 99.6394 55.5322 99.7683 55.6787 99.8914C55.7314 99.9324 55.7988 99.9675 55.8809 99.9968C55.9629 100.02 56.042 100.047 56.1182 100.076C56.2002 100.105 56.2676 100.146 56.3203 100.199C56.3789 100.246 56.4082 100.316 56.4082 100.41C56.4082 100.527 56.3701 100.6 56.2939 100.63C56.2236 100.665 56.1416 100.682 56.0479 100.682C55.9951 100.682 55.9395 100.679 55.8809 100.674C55.8281 100.668 55.7812 100.665 55.7402 100.665C55.7168 100.677 55.6582 100.685 55.5645 100.691C55.4707 100.703 55.3682 100.715 55.2568 100.726C55.1514 100.738 55.0518 100.747 54.958 100.753C54.8643 100.759 54.8057 100.761 54.7822 100.761L54.7383 100.761C54.7324 100.761 54.7119 100.759 54.6768 100.753C54.6416 100.747 54.6035 100.738 54.5625 100.726C54.5273 100.715 54.4893 100.703 54.4482 100.691C54.4131 100.685 54.3926 100.677 54.3867 100.665C54.3574 100.665 54.2959 100.662 54.2021 100.656C54.1143 100.65 54.0176 100.644 53.9121 100.638C53.8125 100.638 53.7188 100.635 53.6309 100.63C53.543 100.624 53.4873 100.621 53.4639 100.621C53.4404 100.621 53.3906 100.615 53.3145 100.603C53.2441 100.586 53.1973 100.571 53.1738 100.559L53.1738 100.498C53.1738 100.404 53.1943 100.34 53.2354 100.304C53.2822 100.269 53.3291 100.24 53.376 100.217C53.4287 100.187 53.4756 100.152 53.5166 100.111C53.5635 100.07 53.5869 99.9968 53.5869 99.8914C53.5869 99.8328 53.5693 99.739 53.5342 99.6101C53.499 99.4812 53.4492 99.3406 53.3848 99.1882C53.3262 99.03 53.2588 98.8689 53.1826 98.7048C53.1123 98.5408 53.0361 98.3914 52.9541 98.2566C52.8779 98.1218 52.8047 98.0105 52.7344 97.9226C52.6641 97.8347 52.6025 97.7908 52.5498 97.7908C52.4502 97.7908 52.3682 97.8201 52.3037 97.8787C52.2393 97.9314 52.1836 97.9988 52.1367 98.0808C52.0898 98.157 52.0488 98.239 52.0137 98.3269C51.9785 98.4148 51.9434 98.491 51.9082 98.5554C51.8906 98.5847 51.8467 98.655 51.7764 98.7664C51.7061 98.8718 51.627 98.989 51.5391 99.1179C51.457 99.2468 51.3779 99.3669 51.3018 99.4783C51.2314 99.5896 51.1875 99.657 51.1699 99.6804C51.1582 99.6863 51.1436 99.7068 51.126 99.7419C51.1143 99.7712 51.1025 99.7917 51.0908 99.8035L51.0908 99.865C51.0908 99.947 51.126 100.006 51.1963 100.041C51.2666 100.076 51.3486 100.108 51.4424 100.137C51.5361 100.161 51.6299 100.193 51.7236 100.234C51.8232 100.269 51.8994 100.328 51.9521 100.41C51.9521 100.486 51.9316 100.539 51.8906 100.568C51.8555 100.592 51.8115 100.609 51.7588 100.621L49.2979 100.621C49.251 100.621 49.2217 100.603 49.21 100.568C49.2041 100.527 49.2012 100.498 49.2012 100.48L49.2012 100.41C49.2715 100.328 49.3506 100.26 49.4385 100.208C49.5322 100.155 49.626 100.108 49.7197 100.067C49.8193 100.026 49.9189 99.988 50.0186 99.9529C50.1182 99.9119 50.2119 99.8621 50.2998 99.8035C50.3232 99.78 50.3701 99.7361 50.4404 99.6716C50.5107 99.6013 50.584 99.5281 50.6602 99.4519C50.7422 99.3757 50.8184 99.3025 50.8887 99.2322C50.9648 99.1619 51.0176 99.1121 51.0469 99.0828C51.1992 98.907 51.3281 98.7253 51.4336 98.5378C51.5449 98.3445 51.6533 98.1482 51.7588 97.949C51.7705 97.9314 51.7969 97.905 51.8379 97.8699C51.8789 97.8289 51.9023 97.8025 51.9082 97.7908C51.9258 97.7673 51.9492 97.7351 51.9785 97.6941C52.0137 97.6472 52.043 97.6033 52.0664 97.5623C52.0957 97.5212 52.1191 97.4861 52.1367 97.4568C52.1602 97.4216 52.1719 97.4011 52.1719 97.3953C52.1719 97.3953 52.1719 97.3806 52.1719 97.3513C52.1777 97.3162 52.1807 97.2781 52.1807 97.2371C52.1865 97.196 52.1895 97.158 52.1895 97.1228C52.1953 97.0818 52.1982 97.0525 52.1982 97.0349C52.1982 97.0173 52.1953 96.991 52.1895 96.9558C52.1895 96.9207 52.1865 96.8826 52.1807 96.8416C52.1807 96.8005 52.1777 96.7625 52.1719 96.7273C52.1719 96.6863 52.1719 96.6599 52.1719 96.6482C52.0078 96.5486 51.8848 96.4343 51.8027 96.3054C51.7207 96.1707 51.6445 96.0183 51.5742 95.8484C51.5684 95.8308 51.5508 95.7986 51.5215 95.7517C51.4922 95.7048 51.4629 95.658 51.4336 95.6111C51.4043 95.5583 51.375 95.5115 51.3457 95.4705C51.3223 95.4236 51.3076 95.3972 51.3018 95.3914C51.2783 95.3445 51.2432 95.2712 51.1963 95.1716C51.1553 95.072 51.1201 95.0017 51.0908 94.9607C51.0791 94.9548 51.0674 94.9373 51.0557 94.908C51.0439 94.8728 51.0322 94.8376 51.0205 94.8025C51.0088 94.7673 50.9971 94.7322 50.9854 94.697C50.9795 94.6619 50.9736 94.6384 50.9678 94.6267L50.9502 94.6091C50.9443 94.6033 50.9355 94.6003 50.9238 94.6003C50.918 94.5945 50.9121 94.5857 50.9062 94.574C50.8828 94.5564 50.8623 94.5388 50.8447 94.5212C50.7275 94.3748 50.6338 94.2224 50.5635 94.0642C50.499 93.906 50.4111 93.7595 50.2998 93.6248C50.2236 93.5369 50.1445 93.4607 50.0625 93.3962C49.9805 93.3259 49.8955 93.2615 49.8076 93.2029C49.7256 93.1443 49.6406 93.0857 49.5527 93.0271C49.4648 92.9685 49.3799 92.9011 49.2979 92.825C49.251 92.7957 49.2217 92.7605 49.21 92.7195C49.2041 92.6726 49.2012 92.6257 49.2012 92.5789C49.2012 92.5144 49.2158 92.4734 49.2451 92.4558C49.2744 92.4382 49.3213 92.4294 49.3857 92.4294L49.4209 92.4294C49.4209 92.4294 49.4326 92.4324 49.4561 92.4382C49.4854 92.4441 49.5146 92.45 49.5439 92.4558C49.5791 92.4617 49.6084 92.4675 49.6318 92.4734C49.6611 92.4792 49.6816 92.4822 49.6934 92.4822L49.7373 92.4822C50.1123 92.4822 50.4814 92.4705 50.8447 92.447C51.2139 92.4236 51.583 92.4119 51.9521 92.4119C52.0928 92.4119 52.1953 92.4294 52.2598 92.4646C52.3301 92.4939 52.3652 92.5759 52.3652 92.7107C52.3652 92.8279 52.3418 92.9099 52.2949 92.9568C52.248 92.9978 52.1953 93.03 52.1367 93.0535C52.0781 93.0769 52.0254 93.1062 51.9785 93.1414C51.9316 93.1765 51.9082 93.2468 51.9082 93.3523C51.9082 93.3992 51.9258 93.4607 51.9609 93.5369C51.9961 93.6072 52.0254 93.657 52.0488 93.6863C52.0664 93.7156 52.1045 93.7888 52.1631 93.906C52.2275 94.0173 52.2949 94.1404 52.3652 94.2751C52.4414 94.4041 52.5117 94.5242 52.5762 94.6355C52.6406 94.7468 52.6816 94.8171 52.6992 94.8464C52.7402 94.905 52.7754 94.9519 52.8047 94.9871C52.8398 95.0222 52.8809 95.0398 52.9277 95.0398C52.998 95.0398 53.0771 95.0105 53.165 94.9519C53.2588 94.8875 53.3789 94.7996 53.5254 94.6882C53.584 94.6414 53.6426 94.5681 53.7012 94.4685C53.7656 94.363 53.8242 94.2576 53.877 94.1521C53.9297 94.0408 53.9766 93.9353 54.0176 93.8357C54.0645 93.7361 54.1025 93.6658 54.1318 93.6248ZM65.2764 100.603C65.2529 100.603 65.2178 100.606 65.1709 100.612C65.1299 100.612 65.0859 100.612 65.0391 100.612C64.998 100.612 64.96 100.615 64.9248 100.621C64.8896 100.621 64.8721 100.621 64.8721 100.621L64.6611 100.7L63.5801 100.638L61.2773 100.638C61.1895 100.609 61.1133 100.589 61.0488 100.577C60.9902 100.565 60.9199 100.559 60.8379 100.559C60.7734 100.559 60.7236 100.562 60.6885 100.568C60.6533 100.574 60.6064 100.592 60.5479 100.621C60.4893 100.621 60.3896 100.618 60.249 100.612C60.1143 100.606 59.9707 100.603 59.8184 100.603C59.666 100.603 59.5195 100.606 59.3789 100.612C59.2441 100.618 59.1533 100.621 59.1064 100.621C59.0889 100.621 59.0566 100.624 59.0098 100.63C58.9688 100.635 58.9219 100.638 58.8691 100.638C58.8223 100.644 58.7754 100.65 58.7285 100.656C58.6875 100.662 58.6611 100.665 58.6494 100.665C58.6318 100.671 58.6113 100.674 58.5879 100.674C58.5703 100.679 58.5527 100.682 58.5352 100.682C58.5234 100.682 58.5117 100.682 58.5 100.682C58.3418 100.682 58.2217 100.665 58.1396 100.63C58.0635 100.6 57.9961 100.507 57.9375 100.348C57.9141 100.348 57.9023 100.343 57.9023 100.331C57.8965 100.325 57.8965 100.316 57.9023 100.304C57.9023 100.258 57.917 100.208 57.9463 100.155C57.9814 100.096 58.0225 100.044 58.0693 99.9968C58.1221 99.95 58.1748 99.9119 58.2275 99.8826C58.2861 99.8474 58.3418 99.8298 58.3945 99.8298L59.2295 99.8298C59.2412 99.8298 59.2793 99.7976 59.3438 99.7332C59.4082 99.6628 59.4609 99.6101 59.502 99.575C59.5137 99.5632 59.5254 99.5398 59.5371 99.5046C59.5547 99.4636 59.5635 99.4343 59.5635 99.4167C59.6338 99.071 59.6748 98.7283 59.6865 98.3884C59.6982 98.0486 59.7041 97.6941 59.7041 97.325C59.7041 97.2957 59.7041 97.2312 59.7041 97.1316C59.71 97.0261 59.7129 96.9031 59.7129 96.7625C59.7188 96.6218 59.7246 96.4753 59.7305 96.323C59.7363 96.1648 59.7393 96.0154 59.7393 95.8748C59.7451 95.7341 59.748 95.614 59.748 95.5144C59.7539 95.4089 59.7568 95.3386 59.7568 95.3035L59.7568 94.8289C59.7568 94.3601 59.748 93.8972 59.7305 93.4402C59.7129 92.9832 59.7041 92.5291 59.7041 92.0779L59.7041 92.0164C59.7041 91.9988 59.707 91.9548 59.7129 91.8845C59.7188 91.8083 59.7246 91.7292 59.7305 91.6472C59.7363 91.5652 59.7422 91.489 59.748 91.4187C59.7539 91.3484 59.7568 91.3044 59.7568 91.2869C59.7627 91.2341 59.7686 91.1433 59.7744 91.0144C59.7803 90.8796 59.7861 90.739 59.792 90.5925C59.7979 90.4402 59.8037 90.2996 59.8096 90.1707C59.8154 90.0417 59.8184 89.9509 59.8184 89.8982C59.7891 89.8103 59.7715 89.7195 59.7656 89.6257C59.7598 89.5261 59.751 89.4324 59.7393 89.3445C59.7275 89.2507 59.7041 89.1628 59.6689 89.0808C59.6338 88.9988 59.5781 88.9285 59.502 88.8699C59.4668 88.864 59.4053 88.8582 59.3174 88.8523C59.2295 88.8464 59.1357 88.8435 59.0361 88.8435C58.9424 88.8376 58.8516 88.8318 58.7637 88.8259C58.6758 88.8201 58.6172 88.8142 58.5879 88.8083C58.4941 88.7966 58.3916 88.782 58.2803 88.7644C58.1689 88.741 58.0664 88.7087 57.9727 88.6677C57.8789 88.6208 57.7998 88.5593 57.7354 88.4832C57.6768 88.407 57.6475 88.3074 57.6475 88.1843L57.6826 88.1667C57.6943 88.1609 57.7031 88.155 57.709 88.1492C57.7148 88.1433 57.7236 88.1404 57.7354 88.1404C57.876 88.0583 58.002 88.0056 58.1133 87.9822C58.2246 87.9529 58.3682 87.9382 58.5439 87.9382L58.5879 87.9382C58.6055 87.9558 58.623 87.9705 58.6406 87.9822C58.6758 88.0056 58.6992 88.0173 58.7109 88.0173C59.0039 88.0408 59.2969 88.0583 59.5898 88.0701C59.8828 88.0759 60.1787 88.0789 60.4775 88.0789C60.7236 88.0789 60.9639 88.0759 61.1982 88.0701C61.4326 88.0642 61.6641 88.0613 61.8926 88.0613L63.835 88.0613C63.8584 88.0613 63.8965 88.0583 63.9492 88.0525C64.002 88.0466 64.0576 88.0437 64.1162 88.0437C64.1807 88.0378 64.2422 88.032 64.3008 88.0261C64.3594 88.0203 64.4033 88.0173 64.4326 88.0173L64.4941 88.0173L64.5469 88.0173C64.5645 88.0173 64.6055 88.0203 64.6699 88.0261C64.7344 88.032 64.8047 88.0378 64.8809 88.0437C64.957 88.0437 65.0273 88.0466 65.0918 88.0525C65.1621 88.0583 65.2061 88.0613 65.2236 88.0613L66.2695 88.0613C66.3164 88.0671 66.3838 88.073 66.4717 88.0789C66.5654 88.0847 66.6562 88.0906 66.7441 88.0964C66.8379 88.1023 66.9199 88.1111 66.9902 88.1228C67.0605 88.1287 67.0986 88.1345 67.1045 88.1404C67.1104 88.1404 67.1338 88.1492 67.1748 88.1667C67.2158 88.1843 67.2598 88.2078 67.3066 88.2371C67.3594 88.2605 67.4092 88.2869 67.4561 88.3162C67.5088 88.3455 67.5498 88.3718 67.5791 88.3953C67.6377 88.4304 67.6846 88.5154 67.7197 88.6501C67.7607 88.7791 67.793 88.9226 67.8164 89.0808C67.8398 89.239 67.8574 89.3943 67.8691 89.5466C67.8867 89.699 67.9014 89.8162 67.9131 89.8982C67.9131 89.9275 67.916 89.9802 67.9219 90.0564C67.9336 90.1267 67.9424 90.2029 67.9482 90.2849C67.9541 90.3669 67.96 90.446 67.9658 90.5222C67.9717 90.5984 67.9746 90.6511 67.9746 90.6804L67.9746 90.9177L67.9746 91.1638C67.9453 91.2166 67.9072 91.2517 67.8604 91.2693C67.8135 91.281 67.7637 91.2869 67.7109 91.2869L67.6494 91.2869C67.585 91.2458 67.5381 91.2048 67.5088 91.1638C67.4795 91.1228 67.4561 91.0818 67.4385 91.0408C67.4209 90.9939 67.4033 90.947 67.3857 90.9001C67.374 90.8533 67.3506 90.8035 67.3154 90.7507C67.3154 90.7449 67.3037 90.7332 67.2803 90.7156C67.2627 90.6921 67.2422 90.6687 67.2188 90.6453C67.1953 90.6218 67.1719 90.6013 67.1484 90.5837C67.125 90.5603 67.1104 90.5457 67.1045 90.5398C67.0225 90.4226 66.9404 90.2908 66.8584 90.1443C66.7822 89.9919 66.6914 89.8513 66.5859 89.7224C66.5801 89.7107 66.5596 89.6902 66.5244 89.6609C66.4951 89.6316 66.4746 89.6052 66.4629 89.5818C66.457 89.5701 66.4365 89.5613 66.4014 89.5554C66.3662 89.5437 66.3428 89.532 66.3311 89.5203C66.2607 89.4734 66.2051 89.4207 66.1641 89.3621C66.123 89.3035 66.0791 89.2478 66.0322 89.1951C65.9912 89.1365 65.9443 89.0808 65.8916 89.0281C65.8389 88.9753 65.7656 88.9314 65.6719 88.8962C65.625 88.8962 65.5342 88.8933 65.3994 88.8875C65.2705 88.8757 65.1328 88.8669 64.9863 88.8611C64.8398 88.8494 64.6992 88.8406 64.5645 88.8347C64.4355 88.823 64.3447 88.8142 64.292 88.8083L63.835 88.8083C63.8291 88.8083 63.8027 88.8054 63.7559 88.7996C63.7148 88.7878 63.668 88.7791 63.6152 88.7732C63.5625 88.7615 63.5127 88.7527 63.4658 88.7468C63.4189 88.7351 63.3896 88.7292 63.3779 88.7292L63.2461 88.7292L63.123 88.7292C63.0996 88.7292 63.0469 88.7351 62.9648 88.7468C62.8887 88.7527 62.8037 88.7615 62.71 88.7732C62.6221 88.7791 62.5371 88.7878 62.4551 88.7996C62.3789 88.8054 62.332 88.8083 62.3145 88.8083L61.7959 88.8083C61.7725 88.8083 61.7461 88.8171 61.7168 88.8347C61.6875 88.8464 61.6729 88.8582 61.6729 88.8699L61.6729 89.9597C61.667 90.1472 61.6406 90.3259 61.5938 90.4958C61.5469 90.6658 61.5234 90.8386 61.5234 91.0144C61.5234 91.2781 61.5352 91.5447 61.5586 91.8142C61.5879 92.0779 61.6025 92.3474 61.6025 92.6228C61.6025 92.8103 61.5879 93.0007 61.5586 93.1941C61.5352 93.3875 61.5234 93.5867 61.5234 93.7917L61.5234 93.8533C61.541 93.8708 61.5645 93.8972 61.5938 93.9324C61.623 93.9617 61.6494 93.9763 61.6729 93.9763L61.8926 93.9763L62.1211 93.9763C62.1328 93.9763 62.1592 93.9734 62.2002 93.9675C62.2412 93.9558 62.2852 93.947 62.332 93.9412C62.3789 93.9294 62.4199 93.9207 62.4551 93.9148C62.4961 93.9031 62.5195 93.8972 62.5254 93.8972L63.3076 93.8972C63.3486 93.8972 63.4219 93.8943 63.5273 93.8884C63.6387 93.8826 63.7529 93.8796 63.8701 93.8796C63.9932 93.8738 64.1074 93.8679 64.2129 93.8621C64.3184 93.8562 64.3916 93.8533 64.4326 93.8533C64.5205 93.7771 64.585 93.6658 64.626 93.5193C64.667 93.3669 64.708 93.241 64.749 93.1414C64.7549 93.1238 64.7607 93.0828 64.7666 93.0183C64.7783 92.948 64.79 92.8748 64.8018 92.7986C64.8135 92.7224 64.8252 92.6521 64.8369 92.5876C64.8486 92.5173 64.8604 92.4734 64.8721 92.4558C64.8721 92.45 64.8779 92.4353 64.8896 92.4119C64.9072 92.3826 64.9248 92.3562 64.9424 92.3328C64.96 92.3035 64.9746 92.2771 64.9863 92.2537C65.0039 92.2302 65.0156 92.2156 65.0215 92.2097C65.0449 92.1335 65.0596 92.0515 65.0654 91.9636C65.0713 91.8757 65.0859 91.7966 65.1094 91.7263C65.1328 91.6501 65.1709 91.5886 65.2236 91.5417C65.2764 91.4949 65.3613 91.4714 65.4785 91.4714C65.6074 91.4714 65.6924 91.5007 65.7334 91.5593C65.7744 91.6179 65.7949 91.7146 65.7949 91.8494C65.7949 91.8962 65.792 91.9314 65.7861 91.9548C65.7803 91.9724 65.7686 92.0134 65.751 92.0779C65.751 92.0837 65.748 92.0984 65.7422 92.1218C65.7363 92.1453 65.7334 92.1716 65.7334 92.2009C65.7334 92.2478 65.7363 92.2917 65.7422 92.3328C65.748 92.3679 65.751 92.3943 65.751 92.4119C65.7451 92.447 65.7393 92.5203 65.7334 92.6316C65.7275 92.7429 65.7188 92.8718 65.707 93.0183C65.6953 93.1648 65.6836 93.323 65.6719 93.4929C65.6602 93.657 65.6484 93.8152 65.6367 93.9675C65.625 94.114 65.6133 94.2429 65.6016 94.3542C65.5957 94.4656 65.5898 94.5417 65.584 94.5828C65.584 94.5945 65.5869 94.6501 65.5928 94.7498C65.5986 94.8435 65.6016 94.9402 65.6016 95.0398C65.6016 95.0867 65.5957 95.1394 65.584 95.198C65.5723 95.2507 65.5635 95.2859 65.5576 95.3035C65.5576 95.3035 65.5518 95.3181 65.54 95.3474C65.5342 95.3767 65.5254 95.4119 65.5137 95.4529C65.5078 95.488 65.499 95.5232 65.4873 95.5583C65.4814 95.5876 65.4785 95.6082 65.4785 95.6199C65.4785 95.6375 65.4814 95.6785 65.4873 95.7429C65.4932 95.8074 65.499 95.8777 65.5049 95.9539C65.5166 96.0242 65.5254 96.0916 65.5312 96.156C65.5371 96.2146 65.54 96.2527 65.54 96.2703C65.54 96.2937 65.54 96.3289 65.54 96.3757C65.5459 96.4167 65.5488 96.4607 65.5488 96.5076C65.5488 96.5486 65.5488 96.5896 65.5488 96.6306C65.5547 96.6716 65.5576 96.7039 65.5576 96.7273C65.5576 96.8269 65.5459 96.9177 65.5225 96.9998C65.5049 97.0818 65.4639 97.1726 65.3994 97.2722C65.3936 97.3015 65.3643 97.3337 65.3115 97.3689C65.2646 97.3982 65.2354 97.4128 65.2236 97.4128C65.2119 97.4128 65.1797 97.3982 65.127 97.3689C65.0742 97.3337 65.0391 97.3015 65.0215 97.2722C64.9219 97.1902 64.8516 97.0759 64.8105 96.9294C64.7754 96.783 64.752 96.6248 64.7402 96.4548C64.7285 96.2791 64.7227 96.1003 64.7227 95.9187C64.7227 95.7371 64.7109 95.5701 64.6875 95.4177C64.6699 95.2595 64.6318 95.1277 64.5732 95.0222C64.5146 94.9167 64.4209 94.8523 64.292 94.8289C64.2451 94.8406 64.1719 94.8464 64.0723 94.8464C63.9727 94.8464 63.8643 94.8464 63.7471 94.8464C63.624 94.8464 63.5068 94.8464 63.3955 94.8464C63.29 94.8464 63.2197 94.8406 63.1846 94.8289C63.1553 94.8289 63.1084 94.8259 63.0439 94.8201C62.9795 94.8142 62.9121 94.8113 62.8418 94.8113C62.7773 94.8054 62.7129 94.7996 62.6484 94.7937C62.5898 94.7878 62.5488 94.7849 62.5254 94.7849C62.5195 94.7673 62.4961 94.7468 62.4551 94.7234C62.4141 94.7 62.3877 94.6882 62.376 94.6882L62.2881 94.6882C62.1357 94.6882 61.9893 94.7263 61.8486 94.8025C61.7139 94.8728 61.6318 94.9871 61.6025 95.1453C61.5967 95.1863 61.582 95.2683 61.5586 95.3914C61.541 95.5085 61.5205 95.6375 61.4971 95.7781C61.4795 95.9187 61.459 96.0564 61.4355 96.1912C61.418 96.3201 61.4062 96.4167 61.4004 96.4812L61.4004 96.5339L61.4004 96.5955C61.4004 96.6423 61.4033 96.7185 61.4092 96.824C61.415 96.9294 61.4209 97.0437 61.4268 97.1667C61.4326 97.2839 61.4385 97.3982 61.4443 97.5095C61.4561 97.615 61.4619 97.6882 61.4619 97.7292C61.4912 97.7761 61.5088 97.8113 61.5146 97.8347C61.5205 97.8582 61.5234 97.8845 61.5234 97.9138C61.5234 98.1423 61.5117 98.365 61.4883 98.5818C61.4648 98.7986 61.4531 99.0271 61.4531 99.2673C61.4531 99.2908 61.4531 99.3406 61.4531 99.4167C61.459 99.4929 61.4619 99.5457 61.4619 99.575C61.4678 99.5867 61.4824 99.6072 61.5059 99.6365C61.5293 99.6599 61.5527 99.6863 61.5762 99.7156C61.6055 99.739 61.6348 99.7625 61.6641 99.7859C61.6934 99.8093 61.7139 99.824 61.7256 99.8298C61.7314 99.8416 61.7578 99.8503 61.8047 99.8562C61.8574 99.8621 61.916 99.8679 61.9805 99.8738C62.0449 99.8738 62.1064 99.8796 62.165 99.8914C62.2295 99.8972 62.2793 99.9031 62.3145 99.9089C62.3848 99.9089 62.5049 99.9119 62.6748 99.9177C62.8506 99.9236 63.0352 99.9294 63.2285 99.9353C63.4277 99.9412 63.6123 99.947 63.7822 99.9529C63.958 99.9529 64.0811 99.9529 64.1514 99.9529C64.2217 99.9822 64.292 100.003 64.3623 100.014C64.4385 100.026 64.5117 100.032 64.582 100.032L64.8281 100.032L65.2236 100.032C65.2295 100.032 65.25 100.029 65.2852 100.023C65.3203 100.011 65.3584 100.003 65.3994 99.9968C65.4463 99.9851 65.4873 99.9763 65.5225 99.9705C65.5576 99.9587 65.5781 99.9529 65.584 99.9529L67.2539 99.9529C67.3184 99.9353 67.3799 99.9031 67.4385 99.8562C67.4971 99.8035 67.5527 99.7478 67.6055 99.6892C67.6582 99.6248 67.7051 99.5603 67.7461 99.4958C67.7871 99.4255 67.8223 99.364 67.8516 99.3113C67.8691 99.2937 67.8926 99.2527 67.9219 99.1882C67.957 99.1238 67.9893 99.0564 68.0186 98.9861C68.0537 98.9099 68.0859 98.8396 68.1152 98.7751C68.1445 98.7107 68.1621 98.6726 68.168 98.6609C68.1797 98.6433 68.2061 98.6082 68.2471 98.5554C68.2881 98.5027 68.3086 98.4705 68.3086 98.4587C68.3145 98.447 68.3262 98.4148 68.3438 98.3621C68.3613 98.3093 68.3701 98.2771 68.3701 98.2654C68.376 98.2595 68.3906 98.2419 68.4141 98.2126C68.4434 98.1833 68.4727 98.1541 68.502 98.1248C68.5312 98.0955 68.5576 98.0662 68.5811 98.0369C68.6045 98.0076 68.6191 97.9871 68.625 97.9753C68.6309 97.9695 68.6426 97.9519 68.6602 97.9226C68.6836 97.8875 68.7041 97.8494 68.7217 97.8083C68.7451 97.7615 68.7627 97.7205 68.7744 97.6853C68.792 97.6443 68.8037 97.6179 68.8096 97.6062C68.8213 97.5828 68.8535 97.5476 68.9062 97.5007C68.9648 97.4539 68.9971 97.4246 69.0029 97.4128C69.0146 97.4011 69.0293 97.3923 69.0469 97.3865C69.0645 97.3748 69.0791 97.363 69.0908 97.3513C69.1084 97.3396 69.126 97.3308 69.1436 97.325C69.167 97.3367 69.2021 97.366 69.249 97.4128C69.2959 97.4597 69.3311 97.4949 69.3545 97.5183L69.3545 97.5623C69.3545 97.6326 69.3428 97.7 69.3193 97.7644C69.3018 97.8289 69.293 97.8933 69.293 97.9578C69.293 98.0398 69.3018 98.113 69.3193 98.1775C69.3428 98.2361 69.3545 98.3064 69.3545 98.3884L69.3545 98.4587C69.3545 98.4763 69.3428 98.5085 69.3193 98.5554C69.3018 98.6023 69.293 98.6375 69.293 98.6609L69.293 99.6892C69.2871 99.7595 69.2783 99.8503 69.2666 99.9617C69.2549 100.067 69.2314 100.17 69.1963 100.269C69.1611 100.363 69.1113 100.445 69.0469 100.515C68.9824 100.586 68.8975 100.621 68.792 100.621L68.748 100.621C68.7305 100.615 68.7012 100.609 68.6602 100.603C68.6191 100.597 68.5781 100.592 68.5371 100.586C68.4961 100.58 68.458 100.574 68.4229 100.568C68.3936 100.562 68.376 100.559 68.3701 100.559L68.3174 100.524C68.2822 100.501 68.2646 100.486 68.2646 100.48L68.2119 100.48L68.168 100.48C67.9629 100.551 67.7695 100.586 67.5879 100.586C67.4062 100.586 67.2158 100.597 67.0166 100.621C66.999 100.621 66.9668 100.624 66.9199 100.63C66.873 100.635 66.8203 100.641 66.7617 100.647C66.709 100.659 66.6592 100.671 66.6123 100.682C66.5654 100.694 66.5361 100.703 66.5244 100.709L66.4805 100.709C66.375 100.709 66.2754 100.694 66.1816 100.665C66.0938 100.635 65.9912 100.621 65.874 100.621C65.8623 100.621 65.8301 100.621 65.7773 100.621C65.7305 100.615 65.6748 100.612 65.6104 100.612C65.5518 100.612 65.4902 100.612 65.4258 100.612C65.3672 100.606 65.3174 100.603 65.2764 100.603Z" fill="#151618" fill-opacity="1.000000" fill-rule="evenodd"/>
</svg>
